  0
SECTION
  2
HEADER
  9
$ACADVER
  1
AC1024
  9
$ACADMAINTVER
 70
     6
  9
$DWGCODEPAGE
  3
UNDEFINED
  9
$INSBASE
 10
0.0
 20
0.0
 30
0.0
  9
$EXTMIN
 10
1.000000000000000E+20
 20
1.000000000000000E+20
 30
1.000000000000000E+20
  9
$EXTMAX
 10
-1.000000000000000E+20
 20
-1.000000000000000E+20
 30
-1.000000000000000E+20
  9
$LIMMIN
 10
0.0
 20
0.0
  9
$LIMMAX
 10
12.0
 20
9.0
  9
$ORTHOMODE
 70
     0
  9
$REGENMODE
 70
     1
  9
$FILLMODE
 70
     1
  9
$QTEXTMODE
 70
     0
  9
$MIRRTEXT
 70
     1
  9
$LTSCALE
 40
1.0
  9
$ATTMODE
 70
     1
  9
$TEXTSIZE
 40
0.2
  9
$TRACEWID
 40
0.05
  9
$TEXTSTYLE
  7
Standard
  9
$CLAYER
  8
0
  9
$CELTYPE
  6
ByLayer
  9
$CECOLOR
 62
   256
  9
$CELTSCALE
 40
1.0
  9
$DISPSILH
 70
     0
  9
$DIMSCALE
 40
1.0
  9
$DIMASZ
 40
0.18
  9
$DIMEXO
 40
0.0625
  9
$DIMDLI
 40
0.38
  9
$DIMRND
 40
0.0
  9
$DIMDLE
 40
0.0
  9
$DIMEXE
 40
0.18
  9
$DIMTP
 40
0.0
  9
$DIMTM
 40
0.0
  9
$DIMTXT
 40
0.18
  9
$DIMCEN
 40
0.09
  9
$DIMTSZ
 40
0.0
  9
$DIMTOL
 70
     0
  9
$DIMLIM
 70
     0
  9
$DIMTIH
 70
     1
  9
$DIMTOH
 70
     1
  9
$DIMSE1
 70
     0
  9
$DIMSE2
 70
     0
  9
$DIMTAD
 70
     0
  9
$DIMZIN
 70
     0
  9
$DIMBLK
  1

  9
$DIMASO
 70
     1
  9
$DIMSHO
 70
     1
  9
$DIMPOST
  1

  9
$DIMAPOST
  1

  9
$DIMALT
 70
     0
  9
$DIMALTD
 70
     2
  9
$DIMALTF
 40
25.4
  9
$DIMLFAC
 40
1.0
  9
$DIMTOFL
 70
     0
  9
$DIMTVP
 40
0.0
  9
$DIMTIX
 70
     0
  9
$DIMSOXD
 70
     0
  9
$DIMSAH
 70
     0
  9
$DIMBLK1
  1

  9
$DIMBLK2
  1

  9
$DIMSTYLE
  2
Standard
  9
$DIMCLRD
 70
     0
  9
$DIMCLRE
 70
     0
  9
$DIMCLRT
 70
     0
  9
$DIMTFAC
 40
1.0
  9
$DIMGAP
 40
0.09
  9
$DIMJUST
 70
     0
  9
$DIMSD1
 70
     0
  9
$DIMSD2
 70
     0
  9
$DIMTOLJ
 70
     1
  9
$DIMTZIN
 70
     0
  9
$DIMALTZ
 70
     0
  9
$DIMALTTZ
 70
     0
  9
$DIMUPT
 70
     0
  9
$DIMDEC
 70
     4
  9
$DIMTDEC
 70
     4
  9
$DIMALTU
 70
     2
  9
$DIMALTTD
 70
     2
  9
$DIMTXSTY
  7
Standard
  9
$DIMAUNIT
 70
     0
  9
$DIMADEC
 70
     0
  9
$DIMALTRND
 40
0.0
  9
$DIMAZIN
 70
     0
  9
$DIMDSEP
 70
    46
  9
$DIMATFIT
 70
     3
  9
$DIMFRAC
 70
     0
  9
$DIMLDRBLK
  1

  9
$DIMLUNIT
 70
     2
  9
$DIMLWD
 70
    -2
  9
$DIMLWE
 70
    -2
  9
$DIMTMOVE
 70
     0
  9
$DIMFXL
 40
1.0
  9
$DIMFXLON
 70
     0
  9
$DIMJOGANG
 40
0.7853981633974483
  9
$DIMTFILL
 70
     0
  9
$DIMTFILLCLR
 70
     0
  9
$DIMARCSYM
 70
     0
  9
$DIMLTYPE
  6

  9
$DIMLTEX1
  6

  9
$DIMLTEX2
  6

  9
$DIMTXTDIRECTION
 70
     0
  9
$LUNITS
 70
     2
  9
$LUPREC
 70
     4
  9
$SKETCHINC
 40
0.1
  9
$FILLETRAD
 40
0.5
  9
$AUNITS
 70
     0
  9
$AUPREC
 70
     0
  9
$MENU
  1
.
  9
$ELEVATION
 40
0.0
  9
$PELEVATION
 40
0.0
  9
$THICKNESS
 40
0.0
  9
$LIMCHECK
 70
     0
  9
$CHAMFERA
 40
0.5
  9
$CHAMFERB
 40
0.5
  9
$CHAMFERC
 40
1.0
  9
$CHAMFERD
 40
0.0
  9
$SKPOLY
 70
     0
  9
$TDCREATE
 40
2458654.523530081
  9
$TDUCREATE
 40
2458654.481863426
  9
$TDUPDATE
 40
2458654.523530081
  9
$TDUUPDATE
 40
2458654.481863426
  9
$TDINDWG
 40
0.0000000116
  9
$TDUSRTIMER
 40
0.0000000116
  9
$USRTIMER
 70
     1
  9
$ANGBASE
 50
0.0
  9
$ANGDIR
 70
     0
  9
$PDMODE
 70
     0
  9
$PDSIZE
 40
0.0
  9
$PLINEWID
 40
0.0
  9
$SPLFRAME
 70
     0
  9
$SPLINETYPE
 70
     6
  9
$SPLINESEGS
 70
     8
  9
$HANDSEED
  5
67
  9
$SURFTAB1
 70
     6
  9
$SURFTAB2
 70
     6
  9
$SURFTYPE
 70
     6
  9
$SURFU
 70
     6
  9
$SURFV
 70
     6
  9
$UCSBASE
  2

  9
$UCSNAME
  2

  9
$UCSORG
 10
0.0
 20
0.0
 30
0.0
  9
$UCSXDIR
 10
1.0
 20
0.0
 30
0.0
  9
$UCSYDIR
 10
0.0
 20
1.0
 30
0.0
  9
$UCSORTHOREF
  2

  9
$UCSORTHOVIEW
 70
     0
  9
$UCSORGTOP
 10
0.0
 20
0.0
 30
0.0
  9
$UCSORGBOTTOM
 10
0.0
 20
0.0
 30
0.0
  9
$UCSORGLEFT
 10
0.0
 20
0.0
 30
0.0
  9
$UCSORGRIGHT
 10
0.0
 20
0.0
 30
0.0
  9
$UCSORGFRONT
 10
0.0
 20
0.0
 30
0.0
  9
$UCSORGBACK
 10
0.0
 20
0.0
 30
0.0
  9
$PUCSBASE
  2

  9
$PUCSNAME
  2

  9
$PUCSORG
 10
0.0
 20
0.0
 30
0.0
  9
$PUCSXDIR
 10
1.0
 20
0.0
 30
0.0
  9
$PUCSYDIR
 10
0.0
 20
1.0
 30
0.0
  9
$PUCSORTHOREF
  2

  9
$PUCSORTHOVIEW
 70
     0
  9
$PUCSORGTOP
 10
0.0
 20
0.0
 30
0.0
  9
$PUCSORGBOTTOM
 10
0.0
 20
0.0
 30
0.0
  9
$PUCSORGLEFT
 10
0.0
 20
0.0
 30
0.0
  9
$PUCSORGRIGHT
 10
0.0
 20
0.0
 30
0.0
  9
$PUCSORGFRONT
 10
0.0
 20
0.0
 30
0.0
  9
$PUCSORGBACK
 10
0.0
 20
0.0
 30
0.0
  9
$USERI1
 70
     0
  9
$USERI2
 70
     0
  9
$USERI3
 70
     0
  9
$USERI4
 70
     0
  9
$USERI5
 70
     0
  9
$USERR1
 40
0.0
  9
$USERR2
 40
0.0
  9
$USERR3
 40
0.0
  9
$USERR4
 40
0.0
  9
$USERR5
 40
0.0
  9
$WORLDVIEW
 70
     1
  9
$SHADEDGE
 70
     3
  9
$SHADEDIF
 70
    70
  9
$TILEMODE
 70
     1
  9
$MAXACTVP
 70
    64
  9
$PINSBASE
 10
0.0
 20
0.0
 30
0.0
  9
$PLIMCHECK
 70
     0
  9
$PEXTMIN
 10
1.000000000000000E+20
 20
1.000000000000000E+20
 30
1.000000000000000E+20
  9
$PEXTMAX
 10
-1.000000000000000E+20
 20
-1.000000000000000E+20
 30
-1.000000000000000E+20
  9
$PLIMMIN
 10
0.0
 20
0.0
  9
$PLIMMAX
 10
12.0
 20
9.0
  9
$UNITMODE
 70
     0
  9
$VISRETAIN
 70
     1
  9
$PLINEGEN
 70
     0
  9
$PSLTSCALE
 70
     1
  9
$TREEDEPTH
 70
  3020
  9
$CMLSTYLE
  2
Standard
  9
$CMLJUST
 70
     0
  9
$CMLSCALE
 40
1.0
  9
$PROXYGRAPHICS
 70
     1
  9
$MEASUREMENT
 70
     0
  9
$CELWEIGHT
370
    -1
  9
$ENDCAPS
280
     0
  9
$JOINSTYLE
280
     0
  9
$LWDISPLAY
290
     1
  9
$INSUNITS
 70
     1
  9
$HYPERLINKBASE
  1

  9
$STYLESHEET
  1

  9
$XEDIT
290
     1
  9
$CEPSNTYPE
380
     0
  9
$PSTYLEMODE
290
     1
  9
$FINGERPRINTGUID
  2
{1788B3A8-DAA8-9331-6756-F47428AA61F0}
  9
$VERSIONGUID
  2
{FAEB1C32-E019-11D5-929B-00C0DF256EC4}
  9
$EXTNAMES
290
     1
  9
$PSVPSCALE
 40
0.0
  9
$OLESTARTUP
290
     0
  9
$SORTENTS
280
   127
  9
$INDEXCTL
280
     0
  9
$HIDETEXT
280
     1
  9
$XCLIPFRAME
280
     2
  9
$HALOGAP
280
     0
  9
$OBSCOLOR
 70
   257
  9
$OBSLTYPE
280
     0
  9
$INTERSECTIONDISPLAY
280
     0
  9
$INTERSECTIONCOLOR
 70
   257
  9
$DIMASSOC
280
     2
  9
$PROJECTNAME
  1

  9
$CAMERADISPLAY
290
     0
  9
$LENSLENGTH
 40
50.0
  9
$CAMERAHEIGHT
 40
0.0
  9
$STEPSPERSEC
 40
2.0
  9
$STEPSIZE
 40
6.0
  9
$3DDWFPREC
 40
2.0
  9
$PSOLWIDTH
 40
0.25
  9
$PSOLHEIGHT
 40
4.0
  9
$LOFTANG1
 40
1.570796326794897
  9
$LOFTANG2
 40
1.570796326794897
  9
$LOFTMAG1
 40
0.0
  9
$LOFTMAG2
 40
0.0
  9
$LOFTPARAM
 70
     7
  9
$LOFTNORMALS
280
     1
  9
$LATITUDE
 40
37.795
  9
$LONGITUDE
 40
-122.394
  9
$NORTHDIRECTION
 40
0.0
  9
$TIMEZONE
 70
 -8000
  9
$LIGHTGLYPHDISPLAY
280
     1
  9
$TILEMODELIGHTSYNCH
280
     1
  9
$CMATERIAL
347
3C
  9
$SOLIDHIST
280
     1
  9
$SHOWHIST
280
     1
  9
$DWFFRAME
280
     2
  9
$DGNFRAME
280
     2
  9
$REALWORLDSCALE
290
     1
  9
$INTERFERECOLOR
 62
   256
  9
$CSHADOW
280
     0
  9
$SHADOWPLANELOCATION
 40
0.0
  0
ENDSEC
  0
SECTION
  2
CLASSES
  0
CLASS
  1
ACDBDICTIONARYWDFLT
  2
AcDbDictionaryWithDefault
  3
ObjectDBX Classes
 90
        0
 91
        4
280
     0
281
     0
  0
CLASS
  1
VISUALSTYLE
  2
AcDbVisualStyle
  3
ObjectDBX Classes
 90
     4095
 91
        4
280
     0
281
     0
  0
CLASS
  1
MATERIAL
  2
AcDbMaterial
  3
ObjectDBX Classes
 90
     1153
 91
        4
280
     0
281
     0
  0
CLASS
  1
SUN
  2
AcDbSun
  3
SCENEOE
 90
     1024
 91
        4
280
     0
281
     0
  0
ENDSEC
  0
SECTION
  2
TABLES
  0
TABLE
  2
VPORT
  5
8
330
0
100
AcDbSymbolTable
 70
     1
  0
VPORT
  5
29
330
8
100
AcDbSymbolTableRecord
100
AcDbViewportTableRecord
  2
*Active
 70
     0
 10
0.0
 20
0.0
 11
1.0
 21
1.0
 12
0.0
 22
0.0
 13
0.0
 23
0.0
 14
0.5
 24
0.5
 15
0.5
 25
0.5
 16
0.0
 26
0.0
 36
1.0
 17
223.3632727737504
 27
70.07634050733567
 37
0.0
 40
128.6081693508903
 41
0.2341096879809407
 42
50.0
 43
0.0
 44
0.0
 50
0.0
 51
0.0
 71
     0
 72
   100
 73
     1
 74
     3
 75
     0
 76
     0
 77
     0
 78
     0
281
     0
 65
     1
110
0.0
120
0.0
130
0.0
111
1.0
121
0.0
131
0.0
112
0.0
122
1.0
132
0.0
 79
     0
146
0.0
 60
     3
 61
     5
292
     1
282
     1
141
0.0
142
0.0
 63
   250
361
3F
  0
ENDTAB
  0
TABLE
  2
LTYPE
  5
5
330
0
100
AcDbSymbolTable
 70
     1
  0
LTYPE
  5
14
330
5
100
AcDbSymbolTableRecord
100
AcDbLinetypeTableRecord
  2
ByBlock
 70
     0
  3

 72
    65
 73
     0
 40
0.0
  0
LTYPE
  5
15
330
5
100
AcDbSymbolTableRecord
100
AcDbLinetypeTableRecord
  2
ByLayer
 70
     0
  3

 72
    65
 73
     0
 40
0.0
  0
LTYPE
  5
16
330
5
100
AcDbSymbolTableRecord
100
AcDbLinetypeTableRecord
  2
Continuous
 70
     0
  3
Solid line
 72
    65
 73
     0
 40
0.0
  0
ENDTAB
  0
TABLE
  2
LAYER
  5
2
330
0
100
AcDbSymbolTable
 70
     6
  0
LAYER
  5
10
330
2
100
AcDbSymbolTableRecord
100
AcDbLayerTableRecord
  2
0
 70
     0
 62
     7
  6
Continuous
370
    -3
390
F
347
3E
  0
LAYER
  5
40
330
2
100
AcDbSymbolTableRecord
100
AcDbLayerTableRecord
  2
image
 70
     5
 62
     7
  6
Continuous
370
    -3
390
F
347
3E
  0
LAYER
  5
41
330
2
100
AcDbSymbolTableRecord
100
AcDbLayerTableRecord
  2
guides
 70
     5
 62
     7
  6
Continuous
370
    -3
390
F
347
3E
  0
LAYER
  5
42
330
2
100
AcDbSymbolTableRecord
100
AcDbLayerTableRecord
  2
holes
 70
     0
 62
     7
  6
Continuous
370
    -3
390
F
347
3E
  0
LAYER
  5
43
330
2
100
AcDbSymbolTableRecord
100
AcDbLayerTableRecord
  2
outline
 70
     0
 62
     7
  6
Continuous
370
    -3
390
F
347
3E
  0
LAYER
  5
44
330
2
100
AcDbSymbolTableRecord
100
AcDbLayerTableRecord
  2
prints
 70
     0
 62
     7
  6
Continuous
370
    -3
390
F
347
3E
  0
ENDTAB
  0
TABLE
  2
STYLE
  5
3
330
0
100
AcDbSymbolTable
 70
     1
  0
STYLE
  5
11
330
3
100
AcDbSymbolTableRecord
100
AcDbTextStyleTableRecord
  2
Standard
 70
     0
 40
0.0
 41
1.0
 50
0.0
 71
     0
 42
0.2
  3
txt
  4

  0
ENDTAB
  0
TABLE
  2
VIEW
  5
6
330
0
100
AcDbSymbolTable
 70
     0
  0
ENDTAB
  0
TABLE
  2
UCS
  5
7
330
0
100
AcDbSymbolTable
 70
     0
  0
ENDTAB
  0
TABLE
  2
APPID
  5
9
330
0
100
AcDbSymbolTable
 70
     1
  0
APPID
  5
12
330
9
100
AcDbSymbolTableRecord
100
AcDbRegAppTableRecord
  2
ACAD
 70
     0
  0
ENDTAB
  0
TABLE
  2
DIMSTYLE
  5
A
330
0
100
AcDbSymbolTable
 70
     1
100
AcDbDimStyleTable
  0
DIMSTYLE
105
27
330
A
100
AcDbSymbolTableRecord
100
AcDbDimStyleTableRecord
  2
Standard
 70
     0
178
     0
340
11
  0
ENDTAB
  0
TABLE
  2
BLOCK_RECORD
  5
1
330
0
100
AcDbSymbolTable
 70
     1
  0
BLOCK_RECORD
  5
1F
330
1
100
AcDbSymbolTableRecord
100
AcDbBlockTableRecord
  2
*Model_Space
340
22
 70
     0
280
     1
281
     0
  0
BLOCK_RECORD
  5
1B
330
1
100
AcDbSymbolTableRecord
100
AcDbBlockTableRecord
  2
*Paper_Space
340
1E
 70
     0
280
     1
281
     0
  0
BLOCK_RECORD
  5
23
330
1
100
AcDbSymbolTableRecord
100
AcDbBlockTableRecord
  2
*Paper_Space0
340
26
 70
     0
280
     1
281
     0
  0
ENDTAB
  0
ENDSEC
  0
SECTION
  2
BLOCKS
  0
BLOCK
  5
20
330
1F
100
AcDbEntity
  8
0
100
AcDbBlockBegin
  2
*Model_Space
 70
     0
 10
0.0
 20
0.0
 30
0.0
  3
*Model_Space
  1

  0
ENDBLK
  5
21
330
1F
100
AcDbEntity
  8
0
100
AcDbBlockEnd
  0
BLOCK
  5
1C
330
1B
100
AcDbEntity
 67
     1
  8
0
100
AcDbBlockBegin
  2
*Paper_Space
 70
     0
 10
0.0
 20
0.0
 30
0.0
  3
*Paper_Space
  1

  0
ENDBLK
  5
1D
330
1B
100
AcDbEntity
 67
     1
  8
0
100
AcDbBlockEnd
  0
BLOCK
  5
24
330
23
100
AcDbEntity
  8
0
100
AcDbBlockBegin
  2
*Paper_Space0
 70
     0
 10
0.0
 20
0.0
 30
0.0
  3
*Paper_Space0
  1

  0
ENDBLK
  5
25
330
23
100
AcDbEntity
  8
0
100
AcDbBlockEnd
  0
ENDSEC
  0
SECTION
  2
ENTITIES
  0
SPLINE
  5
45
330
1F
100
AcDbEntity
  8
prints
370
     0
100
AcDbSpline
210
0.0
220
0.0
230
1.0
 70
    11
 71
     3
 72
   107
 73
   103
 74
     0
 42
0.0000000001
 43
0.0000000001
 12
1.0
 22
0.0
 32
0.0
 13
1.0
 23
0.0
 33
0.0
 40
0.0
 40
0.0
 40
0.0
 40
0.0
 40
1.0
 40
1.0
 40
1.0
 40
2.0
 40
2.0
 40
2.0
 40
3.0
 40
3.0
 40
3.0
 40
4.0
 40
4.0
 40
4.0
 40
5.0
 40
5.0
 40
5.0
 40
6.0
 40
6.0
 40
6.0
 40
7.0
 40
7.0
 40
7.0
 40
8.0
 40
8.0
 40
8.0
 40
9.0
 40
9.0
 40
9.0
 40
10.0
 40
10.0
 40
10.0
 40
11.0
 40
11.0
 40
11.0
 40
12.0
 40
12.0
 40
12.0
 40
13.0
 40
13.0
 40
13.0
 40
14.0
 40
14.0
 40
14.0
 40
15.0
 40
15.0
 40
15.0
 40
16.0
 40
16.0
 40
16.0
 40
17.0
 40
17.0
 40
17.0
 40
18.0
 40
18.0
 40
18.0
 40
19.0
 40
19.0
 40
19.0
 40
20.0
 40
20.0
 40
20.0
 40
21.0
 40
21.0
 40
21.0
 40
22.0
 40
22.0
 40
22.0
 40
23.0
 40
23.0
 40
23.0
 40
24.0
 40
24.0
 40
24.0
 40
25.0
 40
25.0
 40
25.0
 40
26.0
 40
26.0
 40
26.0
 40
27.0
 40
27.0
 40
27.0
 40
28.0
 40
28.0
 40
28.0
 40
29.0
 40
29.0
 40
29.0
 40
30.0
 40
30.0
 40
30.0
 40
31.0
 40
31.0
 40
31.0
 40
32.0
 40
32.0
 40
32.0
 40
33.0
 40
33.0
 40
33.0
 40
34.0
 40
34.0
 40
34.0
 40
34.0
 10
223.3631140237544
 20
105.1343367622441
 30
0.0
 10
222.2565559964295
 20
105.1343367622441
 30
0.0
 10
221.3199662981017
 20
104.3971370588294
 30
0.0
 10
221.0161188058535
 20
103.3883337512328
 30
0.0
 10
221.0161188058535
 20
103.3883337512328
 30
0.0
 10
220.662423814877
 20
103.3883337512328
 30
0.0
 10
220.662423814877
 20
103.3883337512328
 30
0.0
 10
220.3290135456052
 20
105.7399503579047
 30
0.0
 10
218.4584799822154
 20
107.5986658660404
 30
0.0
 10
216.1008308756974
 20
107.9128497469138
 30
0.0
 10
216.1008308756974
 20
107.9128497469138
 30
0.0
 10
216.1008308756974
 20
110.3835641283251
 30
0.0
 10
216.1008308756974
 20
110.3835641283251
 30
0.0
 10
218.4488844269047
 20
110.696442731454
 30
0.0
 10
220.3135266015559
 20
112.5414351843843
 30
0.0
 10
220.6580493705442
 20
114.8794698469583
 30
0.0
 10
220.6580493705442
 20
114.8794698469583
 30
0.0
 10
221.0168243613911
 20
114.8794698469583
 30
0.0
 10
221.0168243613911
 20
114.8794698469583
 30
0.0
 10
221.3206718536393
 20
113.8706694159766
 30
0.0
 10
222.2572615519671
 20
113.1335021137239
 30
0.0
 10
223.3637843015151
 20
113.1335021137239
 30
0.0
 10
224.715663989248
 20
113.1335021137239
 30
0.0
 10
225.8153075723049
 20
114.2331456967808
 30
0.0
 10
225.8153075723049
 20
115.5850253845137
 30
0.0
 10
225.8153075723049
 20
116.9368697944697
 30
0.0
 10
224.715663989248
 20
118.0365486553034
 30
0.0
 10
223.3637843015151
 20
118.0365486553034
 30
0.0
 10
222.2572615519671
 20
118.0365486553034
 30
0.0
 10
221.3206718536393
 20
117.2993489518887
 30
0.0
 10
221.0168243613911
 20
116.290580922069
 30
0.0
 10
221.0168243613911
 20
116.290580922069
 30
0.0
 10
220.6802038144234
 20
116.290580922069
 30
0.0
 10
220.6802038144234
 20
116.290580922069
 30
0.0
 10
220.3656671557812
 20
118.9295702991872
 30
0.0
 10
218.1175908242456
 20
120.9834777467877
 30
0.0
 10
215.3952753381421
 20
120.9834777467877
 30
0.0
 10
212.4583298575142
 20
120.9834777467877
 30
0.0
 10
210.0691776962443
 20
118.5943255855178
 30
0.0
 10
210.0691776962443
 20
115.65738010489
 30
0.0
 10
210.0691776962443
 20
112.9601823959234
 30
0.0
 10
212.0859729225694
 20
110.7305210639179
 30
0.0
 10
214.6897198005867
 20
110.3835641283251
 30
0.0
 10
214.6897198005867
 20
110.3835641283251
 30
0.0
 10
214.6897198005867
 20
107.9128497469138
 30
0.0
 10
214.6897198005867
 20
107.9128497469138
 30
0.0
 10
212.0859729225694
 20
107.5658575335441
 30
0.0
 10
210.0691776962443
 20
105.3362314793155
 30
0.0
 10
210.0691776962443
 20
102.639033770349
 30
0.0
 10
210.0691776962443
 20
99.94183606138246
 30
0.0
 10
212.0859729225694
 20
97.71221000715384
 30
0.0
 10
214.6897198005867
 20
97.36521779378413
 30
0.0
 10
214.6897198005867
 20
97.36521779378413
 30
0.0
 10
214.6897198005867
 20
95.0549138651252
 30
0.0
 10
214.6897198005867
 20
95.0549138651252
 30
0.0
 10
212.0859729225694
 20
94.70791925046635
 30
0.0
 10
210.0691776962443
 20
92.47825791846086
 30
0.0
 10
210.0691776962443
 20
89.7810954872712
 30
0.0
 10
210.0691776962443
 20
87.0838999782293
 30
0.0
 10
212.0859729225694
 20
84.85423644629918
 30
0.0
 10
214.6897198005867
 20
84.50727951070635
 30
0.0
 10
214.6897198005867
 20
84.50727951070635
 30
0.0
 10
214.6897198005867
 20
82.25722762366551
 30
0.0
 10
214.6897198005867
 20
82.25722762366551
 30
0.0
 10
212.0859376447925
 20
81.9102354102958
 30
0.0
 10
210.0691424184675
 20
79.6806093560672
 30
0.0
 10
210.0691424184675
 20
76.98341164710065
 30
0.0
 10
210.0691424184675
 20
74.04646616647283
 30
0.0
 10
212.4583298575142
 20
71.6572805376411
 30
0.0
 10
215.3952753381421
 20
71.6572805376411
 30
0.0
 10
218.3322208187699
 20
71.6572805376411
 30
0.0
 10
220.7213729800397
 20
74.04646616647283
 30
0.0
 10
220.7213729800397
 20
76.98341164710065
 30
0.0
 10
220.7213729800397
 20
79.6805740782903
 30
0.0
 10
218.7046130314916
 20
81.91027068807267
 30
0.0
 10
216.1008308756974
 20
82.25722762366551
 30
0.0
 10
216.1008308756974
 20
82.25722762366551
 30
0.0
 10
216.1008308756974
 20
84.50727951070635
 30
0.0
 10
216.1008308756974
 20
84.50727951070635
 30
0.0
 10
218.7046130314916
 20
84.85423644629918
 30
0.0
 10
220.7214138337084
 20
87.0838999782293
 30
0.0
 10
220.7214138337084
 20
89.7810954872712
 30
0.0
 10
220.7214138337084
 20
92.47825791846086
 30
0.0
 10
218.7046130314916
 20
94.70791925046635
 30
0.0
 10
216.1008308756974
 20
95.0549138651252
 30
0.0
 10
216.1008308756974
 20
95.0549138651252
 30
0.0
 10
216.1008308756974
 20
97.36521779378413
 30
0.0
 10
216.1008308756974
 20
97.36521779378413
 30
0.0
 10
218.4878310925777
 20
97.68331750789095
 30
0.0
 10
220.377273544374
 20
99.58418995939566
 30
0.0
 10
220.6757940923137
 20
101.9772226761221
 30
0.0
 10
220.6757940923137
 20
101.9772226761221
 30
0.0
 10
221.0161188058535
 20
101.9772226761221
 30
0.0
 10
221.0161188058535
 20
101.9772226761221
 30
0.0
 10
221.3199662981017
 20
100.9684546463023
 30
0.0
 10
222.2565559964295
 20
100.2312549428876
 30
0.0
 10
223.3631140237544
 20
100.2312549428876
 30
0.0
 10
224.7149584337104
 20
100.2312549428876
 30
0.0
 10
225.8146372945442
 20
101.3309338037214
 30
0.0
 10
225.8146372945442
 20
102.6827782136774
 30
0.0
 10
225.8146372945442
 20
104.0346579014103
 30
0.0
 10
224.7149584337104
 20
105.1343367622441
 30
0.0
 10
223.3631140237544
 20
105.1343367622441
 30
0.0
  0
SPLINE
  5
46
330
1F
100
AcDbEntity
  8
prints
370
     0
100
AcDbSpline
210
0.0
220
0.0
230
1.0
 70
    11
 71
     3
 72
    17
 73
    13
 74
     0
 42
0.0000000001
 43
0.0000000001
 12
1.0
 22
0.0
 32
0.0
 13
1.0
 23
0.0
 33
0.0
 40
0.0
 40
0.0
 40
0.0
 40
0.0
 40
1.0
 40
1.0
 40
1.0
 40
2.0
 40
2.0
 40
2.0
 40
3.0
 40
3.0
 40
3.0
 40
4.0
 40
4.0
 40
4.0
 40
4.0
 10
223.3637843015151
 20
117.4977511690493
 30
0.0
 10
224.4183428857222
 20
117.4977511690493
 30
0.0
 10
225.2765100860508
 20
116.6395486909439
 30
0.0
 10
225.2765100860508
 20
115.5850253845137
 30
0.0
 10
225.2765100860508
 20
114.5304668003066
 30
0.0
 10
224.4183428857222
 20
113.672299599978
 30
0.0
 10
223.3637843015151
 20
113.672299599978
 30
0.0
 10
222.3092666110892
 20
113.672299599978
 30
0.0
 10
221.4510937947564
 20
114.5304668003066
 30
0.0
 10
221.4510937947564
 20
115.5850253845137
 30
0.0
 10
221.4510937947564
 20
116.6395486909439
 30
0.0
 10
222.3092666110892
 20
117.4977511690493
 30
0.0
 10
223.3637843015151
 20
117.4977511690493
 30
0.0
  0
SPLINE
  5
47
330
1F
100
AcDbEntity
  8
prints
370
     0
100
AcDbSpline
210
0.0
220
0.0
230
1.0
 70
    11
 71
     3
 72
    17
 73
    13
 74
     0
 42
0.0000000001
 43
0.0000000001
 12
1.0
 22
0.0
 32
0.0
 13
1.0
 23
0.0
 33
0.0
 40
0.0
 40
0.0
 40
0.0
 40
0.0
 40
1.0
 40
1.0
 40
1.0
 40
2.0
 40
2.0
 40
2.0
 40
3.0
 40
3.0
 40
3.0
 40
4.0
 40
4.0
 40
4.0
 40
4.0
 10
210.7747332337997
 20
115.65738010489
 30
0.0
 10
210.7747332337997
 20
118.2050000398948
 30
0.0
 10
212.8476554031373
 20
120.2779222092323
 30
0.0
 10
215.3952753381421
 20
120.2779222092323
 30
0.0
 10
217.9429360566251
 20
120.2779222092323
 30
0.0
 10
220.0158582783292
 20
118.2050000398948
 30
0.0
 10
220.0158582783292
 20
115.65738010489
 30
0.0
 10
220.0158582783292
 20
113.1097277495004
 30
0.0
 10
217.9429360566251
 20
111.0368055277964
 30
0.0
 10
215.3952753381421
 20
111.0368055277964
 30
0.0
 10
212.8476554031373
 20
111.0368055277964
 30
0.0
 10
210.7747332337997
 20
113.1097277495004
 30
0.0
 10
210.7747332337997
 20
115.65738010489
 30
0.0
  0
SPLINE
  5
48
330
1F
100
AcDbEntity
  8
prints
370
     0
100
AcDbSpline
210
0.0
220
0.0
230
1.0
 70
    11
 71
     3
 72
    17
 73
    13
 74
     0
 42
0.0000000001
 43
0.0000000001
 12
1.0
 22
0.0
 32
0.0
 13
1.0
 23
0.0
 33
0.0
 40
0.0
 40
0.0
 40
0.0
 40
0.0
 40
1.0
 40
1.0
 40
1.0
 40
2.0
 40
2.0
 40
2.0
 40
3.0
 40
3.0
 40
3.0
 40
4.0
 40
4.0
 40
4.0
 40
4.0
 10
220.0158174424844
 20
76.98341164710065
 30
0.0
 10
220.0158174424844
 20
74.43575831472432
 30
0.0
 10
217.9429360566251
 20
72.36283609302026
 30
0.0
 10
215.3952753381421
 20
72.36283609302026
 30
0.0
 10
212.8476201253604
 20
72.36283609302026
 30
0.0
 10
210.7746979560228
 20
74.43575831472432
 30
0.0
 10
210.7746979560228
 20
76.98341164710065
 30
0.0
 10
210.7746979560228
 20
79.53106685988233
 30
0.0
 10
212.8476201253604
 20
81.6039890292199
 30
0.0
 10
215.3952753381421
 20
81.6039890292199
 30
0.0
 10
217.9429360566251
 20
81.6039890292199
 30
0.0
 10
220.0158174424844
 20
79.53106685988233
 30
0.0
 10
220.0158174424844
 20
76.98341164710065
 30
0.0
  0
SPLINE
  5
49
330
1F
100
AcDbEntity
  8
prints
370
     0
100
AcDbSpline
210
0.0
220
0.0
230
1.0
 70
    11
 71
     3
 72
    17
 73
    13
 74
     0
 42
0.0000000001
 43
0.0000000001
 12
1.0
 22
0.0
 32
0.0
 13
1.0
 23
0.0
 33
0.0
 40
0.0
 40
0.0
 40
0.0
 40
0.0
 40
1.0
 40
1.0
 40
1.0
 40
2.0
 40
2.0
 40
2.0
 40
3.0
 40
3.0
 40
3.0
 40
4.0
 40
4.0
 40
4.0
 40
4.0
 10
220.0158582783292
 20
89.7810954872712
 30
0.0
 10
220.0158582783292
 20
87.23344027448952
 30
0.0
 10
217.9429360566251
 20
85.16051810515195
 30
0.0
 10
215.3952753381421
 20
85.16051810515195
 30
0.0
 10
212.8476554031373
 20
85.16051810515195
 30
0.0
 10
210.7747332337997
 20
87.23344027448952
 30
0.0
 10
210.7747332337997
 20
89.7810954872712
 30
0.0
 10
210.7747332337997
 20
92.328715422276
 30
0.0
 10
212.8476554031373
 20
94.40163759161358
 30
0.0
 10
215.3952753381421
 20
94.40163759161358
 30
0.0
 10
217.9429360566251
 20
94.40163759161358
 30
0.0
 10
220.0158582783292
 20
92.328715422276
 30
0.0
 10
220.0158582783292
 20
89.7810954872712
 30
0.0
  0
SPLINE
  5
4A
330
1F
100
AcDbEntity
  8
prints
370
     0
100
AcDbSpline
210
0.0
220
0.0
230
1.0
 70
    11
 71
     3
 72
    17
 73
    13
 74
     0
 42
0.0000000001
 43
0.0000000001
 12
1.0
 22
0.0
 32
0.0
 13
1.0
 23
0.0
 33
0.0
 40
0.0
 40
0.0
 40
0.0
 40
0.0
 40
1.0
 40
1.0
 40
1.0
 40
2.0
 40
2.0
 40
2.0
 40
3.0
 40
3.0
 40
3.0
 40
4.0
 40
4.0
 40
4.0
 40
4.0
 10
215.3952753381421
 20
98.01849166600661
 30
0.0
 10
212.8476554031373
 20
98.01849166600661
 30
0.0
 10
210.7747332337997
 20
100.0913785575673
 30
0.0
 10
210.7747332337997
 20
102.639033770349
 30
0.0
 10
210.7747332337997
 20
105.1866916403698
 30
0.0
 10
212.8476554031373
 20
107.2596138620739
 30
0.0
 10
215.3952753381421
 20
107.2596138620739
 30
0.0
 10
217.9429360566251
 20
107.2596138620739
 30
0.0
 10
220.0158582783292
 20
105.1866916403698
 30
0.0
 10
220.0158582783292
 20
102.639033770349
 30
0.0
 10
220.0158582783292
 20
100.0913785575673
 30
0.0
 10
217.9429360566251
 20
98.01849166600661
 30
0.0
 10
215.3952753381421
 20
98.01849166600661
 30
0.0
  0
SPLINE
  5
4B
330
1F
100
AcDbEntity
  8
prints
370
     0
100
AcDbSpline
210
0.0
220
0.0
230
1.0
 70
    11
 71
     3
 72
    17
 73
    13
 74
     0
 42
0.0000000001
 43
0.0000000001
 12
1.0
 22
0.0
 32
0.0
 13
1.0
 23
0.0
 33
0.0
 40
0.0
 40
0.0
 40
0.0
 40
0.0
 40
1.0
 40
1.0
 40
1.0
 40
2.0
 40
2.0
 40
2.0
 40
3.0
 40
3.0
 40
3.0
 40
4.0
 40
4.0
 40
4.0
 40
4.0
 10
223.3631140237544
 20
100.7700877069187
 30
0.0
 10
222.3085610555337
 20
100.7700877069187
 30
0.0
 10
221.4503882392188
 20
101.6282549072472
 30
0.0
 10
221.4503882392188
 20
102.6827782136774
 30
0.0
 10
221.4503882392188
 20
103.7373367978845
 30
0.0
 10
222.3085610555337
 20
104.595503998213
 30
0.0
 10
223.3631140237544
 20
104.595503998213
 30
0.0
 10
224.4176373301846
 20
104.595503998213
 30
0.0
 10
225.2758045305132
 20
103.7373367978845
 30
0.0
 10
225.2758045305132
 20
102.6827782136774
 30
0.0
 10
225.2758045305132
 20
101.6282549072472
 30
0.0
 10
224.4176373301846
 20
100.7700877069187
 30
0.0
 10
223.3631140237544
 20
100.7700877069187
 30
0.0
  0
HATCH
  5
4C
330
1F
100
AcDbEntity
  8
prints
 62
     7
420
 16777215
100
AcDbHatch
 10
0.0
 20
0.0
 30
0.0
210
0.0
220
0.0
230
1.0
  2
SOLID
 70
     1
 71
     0
 91
        7
 92
        1
 93
        1
 72
     4
 94
        3
 73
     0
 74
     1
 95
      107
 96
      103
 40
0.0
 40
0.0
 40
0.0
 40
0.0
 40
1.0
 40
1.0
 40
1.0
 40
2.0
 40
2.0
 40
2.0
 40
3.0
 40
3.0
 40
3.0
 40
4.0
 40
4.0
 40
4.0
 40
5.0
 40
5.0
 40
5.0
 40
6.0
 40
6.0
 40
6.0
 40
7.0
 40
7.0
 40
7.0
 40
8.0
 40
8.0
 40
8.0
 40
9.0
 40
9.0
 40
9.0
 40
10.0
 40
10.0
 40
10.0
 40
11.0
 40
11.0
 40
11.0
 40
12.0
 40
12.0
 40
12.0
 40
13.0
 40
13.0
 40
13.0
 40
14.0
 40
14.0
 40
14.0
 40
15.0
 40
15.0
 40
15.0
 40
16.0
 40
16.0
 40
16.0
 40
17.0
 40
17.0
 40
17.0
 40
18.0
 40
18.0
 40
18.0
 40
19.0
 40
19.0
 40
19.0
 40
20.0
 40
20.0
 40
20.0
 40
21.0
 40
21.0
 40
21.0
 40
22.0
 40
22.0
 40
22.0
 40
23.0
 40
23.0
 40
23.0
 40
24.0
 40
24.0
 40
24.0
 40
25.0
 40
25.0
 40
25.0
 40
26.0
 40
26.0
 40
26.0
 40
27.0
 40
27.0
 40
27.0
 40
28.0
 40
28.0
 40
28.0
 40
29.0
 40
29.0
 40
29.0
 40
30.0
 40
30.0
 40
30.0
 40
31.0
 40
31.0
 40
31.0
 40
32.0
 40
32.0
 40
32.0
 40
33.0
 40
33.0
 40
33.0
 40
34.0
 40
34.0
 40
34.0
 40
34.0
 10
223.3631140237544
 20
105.1343367622441
 10
222.2565559964295
 20
105.1343367622441
 10
221.3199662981017
 20
104.3971370588294
 10
221.0161188058535
 20
103.3883337512328
 10
221.0161188058535
 20
103.3883337512328
 10
220.662423814877
 20
103.3883337512328
 10
220.662423814877
 20
103.3883337512328
 10
220.3290135456052
 20
105.7399503579047
 10
218.4584799822154
 20
107.5986658660404
 10
216.1008308756974
 20
107.9128497469138
 10
216.1008308756974
 20
107.9128497469138
 10
216.1008308756974
 20
110.3835641283251
 10
216.1008308756974
 20
110.3835641283251
 10
218.4488844269047
 20
110.696442731454
 10
220.3135266015559
 20
112.5414351843843
 10
220.6580493705442
 20
114.8794698469583
 10
220.6580493705442
 20
114.8794698469583
 10
221.0168243613911
 20
114.8794698469583
 10
221.0168243613911
 20
114.8794698469583
 10
221.3206718536393
 20
113.8706694159766
 10
222.2572615519671
 20
113.1335021137239
 10
223.3637843015151
 20
113.1335021137239
 10
224.715663989248
 20
113.1335021137239
 10
225.8153075723049
 20
114.2331456967808
 10
225.8153075723049
 20
115.5850253845137
 10
225.8153075723049
 20
116.9368697944697
 10
224.715663989248
 20
118.0365486553034
 10
223.3637843015151
 20
118.0365486553034
 10
222.2572615519671
 20
118.0365486553034
 10
221.3206718536393
 20
117.2993489518887
 10
221.0168243613911
 20
116.290580922069
 10
221.0168243613911
 20
116.290580922069
 10
220.6802038144234
 20
116.290580922069
 10
220.6802038144234
 20
116.290580922069
 10
220.3656671557812
 20
118.9295702991872
 10
218.1175908242456
 20
120.9834777467877
 10
215.3952753381421
 20
120.9834777467877
 10
212.4583298575142
 20
120.9834777467877
 10
210.0691776962443
 20
118.5943255855178
 10
210.0691776962443
 20
115.65738010489
 10
210.0691776962443
 20
112.9601823959234
 10
212.0859729225694
 20
110.7305210639179
 10
214.6897198005867
 20
110.3835641283251
 10
214.6897198005867
 20
110.3835641283251
 10
214.6897198005867
 20
107.9128497469138
 10
214.6897198005867
 20
107.9128497469138
 10
212.0859729225694
 20
107.5658575335441
 10
210.0691776962443
 20
105.3362314793155
 10
210.0691776962443
 20
102.639033770349
 10
210.0691776962443
 20
99.94183606138246
 10
212.0859729225694
 20
97.71221000715384
 10
214.6897198005867
 20
97.36521779378413
 10
214.6897198005867
 20
97.36521779378413
 10
214.6897198005867
 20
95.0549138651252
 10
214.6897198005867
 20
95.0549138651252
 10
212.0859729225694
 20
94.70791925046635
 10
210.0691776962443
 20
92.47825791846086
 10
210.0691776962443
 20
89.7810954872712
 10
210.0691776962443
 20
87.0838999782293
 10
212.0859729225694
 20
84.85423644629918
 10
214.6897198005867
 20
84.50727951070635
 10
214.6897198005867
 20
84.50727951070635
 10
214.6897198005867
 20
82.25722762366551
 10
214.6897198005867
 20
82.25722762366551
 10
212.0859376447925
 20
81.9102354102958
 10
210.0691424184675
 20
79.6806093560672
 10
210.0691424184675
 20
76.98341164710065
 10
210.0691424184675
 20
74.04646616647283
 10
212.4583298575142
 20
71.6572805376411
 10
215.3952753381421
 20
71.6572805376411
 10
218.3322208187699
 20
71.6572805376411
 10
220.7213729800397
 20
74.04646616647283
 10
220.7213729800397
 20
76.98341164710065
 10
220.7213729800397
 20
79.6805740782903
 10
218.7046130314916
 20
81.91027068807267
 10
216.1008308756974
 20
82.25722762366551
 10
216.1008308756974
 20
82.25722762366551
 10
216.1008308756974
 20
84.50727951070635
 10
216.1008308756974
 20
84.50727951070635
 10
218.7046130314916
 20
84.85423644629918
 10
220.7214138337084
 20
87.0838999782293
 10
220.7214138337084
 20
89.7810954872712
 10
220.7214138337084
 20
92.47825791846086
 10
218.7046130314916
 20
94.70791925046635
 10
216.1008308756974
 20
95.0549138651252
 10
216.1008308756974
 20
95.0549138651252
 10
216.1008308756974
 20
97.36521779378413
 10
216.1008308756974
 20
97.36521779378413
 10
218.4878310925777
 20
97.68331750789095
 10
220.377273544374
 20
99.58418995939566
 10
220.6757940923137
 20
101.9772226761221
 10
220.6757940923137
 20
101.9772226761221
 10
221.0161188058535
 20
101.9772226761221
 10
221.0161188058535
 20
101.9772226761221
 10
221.3199662981017
 20
100.9684546463023
 10
222.2565559964295
 20
100.2312549428876
 10
223.3631140237544
 20
100.2312549428876
 10
224.7149584337104
 20
100.2312549428876
 10
225.8146372945442
 20
101.3309338037214
 10
225.8146372945442
 20
102.6827782136774
 10
225.8146372945442
 20
104.0346579014103
 10
224.7149584337104
 20
105.1343367622441
 10
223.3631140237544
 20
105.1343367622441
 97
        0
 97
        0
 92
        1
 93
        1
 72
     4
 94
        3
 73
     0
 74
     1
 95
       17
 96
       13
 40
0.0
 40
0.0
 40
0.0
 40
0.0
 40
1.0
 40
1.0
 40
1.0
 40
2.0
 40
2.0
 40
2.0
 40
3.0
 40
3.0
 40
3.0
 40
4.0
 40
4.0
 40
4.0
 40
4.0
 10
223.3637843015151
 20
117.4977511690493
 10
224.4183428857222
 20
117.4977511690493
 10
225.2765100860508
 20
116.6395486909439
 10
225.2765100860508
 20
115.5850253845137
 10
225.2765100860508
 20
114.5304668003066
 10
224.4183428857222
 20
113.672299599978
 10
223.3637843015151
 20
113.672299599978
 10
222.3092666110892
 20
113.672299599978
 10
221.4510937947564
 20
114.5304668003066
 10
221.4510937947564
 20
115.5850253845137
 10
221.4510937947564
 20
116.6395486909439
 10
222.3092666110892
 20
117.4977511690493
 10
223.3637843015151
 20
117.4977511690493
 97
        0
 97
        0
 92
        1
 93
        1
 72
     4
 94
        3
 73
     0
 74
     1
 95
       17
 96
       13
 40
0.0
 40
0.0
 40
0.0
 40
0.0
 40
1.0
 40
1.0
 40
1.0
 40
2.0
 40
2.0
 40
2.0
 40
3.0
 40
3.0
 40
3.0
 40
4.0
 40
4.0
 40
4.0
 40
4.0
 10
210.7747332337997
 20
115.65738010489
 10
210.7747332337997
 20
118.2050000398948
 10
212.8476554031373
 20
120.2779222092323
 10
215.3952753381421
 20
120.2779222092323
 10
217.9429360566251
 20
120.2779222092323
 10
220.0158582783292
 20
118.2050000398948
 10
220.0158582783292
 20
115.65738010489
 10
220.0158582783292
 20
113.1097277495004
 10
217.9429360566251
 20
111.0368055277964
 10
215.3952753381421
 20
111.0368055277964
 10
212.8476554031373
 20
111.0368055277964
 10
210.7747332337997
 20
113.1097277495004
 10
210.7747332337997
 20
115.65738010489
 97
        0
 97
        0
 92
        1
 93
        1
 72
     4
 94
        3
 73
     0
 74
     1
 95
       17
 96
       13
 40
0.0
 40
0.0
 40
0.0
 40
0.0
 40
1.0
 40
1.0
 40
1.0
 40
2.0
 40
2.0
 40
2.0
 40
3.0
 40
3.0
 40
3.0
 40
4.0
 40
4.0
 40
4.0
 40
4.0
 10
220.0158174424844
 20
76.98341164710065
 10
220.0158174424844
 20
74.43575831472432
 10
217.9429360566251
 20
72.36283609302026
 10
215.3952753381421
 20
72.36283609302026
 10
212.8476201253604
 20
72.36283609302026
 10
210.7746979560228
 20
74.43575831472432
 10
210.7746979560228
 20
76.98341164710065
 10
210.7746979560228
 20
79.53106685988233
 10
212.8476201253604
 20
81.6039890292199
 10
215.3952753381421
 20
81.6039890292199
 10
217.9429360566251
 20
81.6039890292199
 10
220.0158174424844
 20
79.53106685988233
 10
220.0158174424844
 20
76.98341164710065
 97
        0
 97
        0
 92
        1
 93
        1
 72
     4
 94
        3
 73
     0
 74
     1
 95
       17
 96
       13
 40
0.0
 40
0.0
 40
0.0
 40
0.0
 40
1.0
 40
1.0
 40
1.0
 40
2.0
 40
2.0
 40
2.0
 40
3.0
 40
3.0
 40
3.0
 40
4.0
 40
4.0
 40
4.0
 40
4.0
 10
220.0158582783292
 20
89.7810954872712
 10
220.0158582783292
 20
87.23344027448952
 10
217.9429360566251
 20
85.16051810515195
 10
215.3952753381421
 20
85.16051810515195
 10
212.8476554031373
 20
85.16051810515195
 10
210.7747332337997
 20
87.23344027448952
 10
210.7747332337997
 20
89.7810954872712
 10
210.7747332337997
 20
92.328715422276
 10
212.8476554031373
 20
94.40163759161358
 10
215.3952753381421
 20
94.40163759161358
 10
217.9429360566251
 20
94.40163759161358
 10
220.0158582783292
 20
92.328715422276
 10
220.0158582783292
 20
89.7810954872712
 97
        0
 97
        0
 92
        1
 93
        1
 72
     4
 94
        3
 73
     0
 74
     1
 95
       17
 96
       13
 40
0.0
 40
0.0
 40
0.0
 40
0.0
 40
1.0
 40
1.0
 40
1.0
 40
2.0
 40
2.0
 40
2.0
 40
3.0
 40
3.0
 40
3.0
 40
4.0
 40
4.0
 40
4.0
 40
4.0
 10
215.3952753381421
 20
98.01849166600661
 10
212.8476554031373
 20
98.01849166600661
 10
210.7747332337997
 20
100.0913785575673
 10
210.7747332337997
 20
102.639033770349
 10
210.7747332337997
 20
105.1866916403698
 10
212.8476554031373
 20
107.2596138620739
 10
215.3952753381421
 20
107.2596138620739
 10
217.9429360566251
 20
107.2596138620739
 10
220.0158582783292
 20
105.1866916403698
 10
220.0158582783292
 20
102.639033770349
 10
220.0158582783292
 20
100.0913785575673
 10
217.9429360566251
 20
98.01849166600661
 10
215.3952753381421
 20
98.01849166600661
 97
        0
 97
        0
 92
        1
 93
        1
 72
     4
 94
        3
 73
     0
 74
     1
 95
       17
 96
       13
 40
0.0
 40
0.0
 40
0.0
 40
0.0
 40
1.0
 40
1.0
 40
1.0
 40
2.0
 40
2.0
 40
2.0
 40
3.0
 40
3.0
 40
3.0
 40
4.0
 40
4.0
 40
4.0
 40
4.0
 10
223.3631140237544
 20
100.7700877069187
 10
222.3085610555337
 20
100.7700877069187
 10
221.4503882392188
 20
101.6282549072472
 10
221.4503882392188
 20
102.6827782136774
 10
221.4503882392188
 20
103.7373367978845
 10
222.3085610555337
 20
104.595503998213
 10
223.3631140237544
 20
104.595503998213
 10
224.4176373301846
 20
104.595503998213
 10
225.2758045305132
 20
103.7373367978845
 10
225.2758045305132
 20
102.6827782136774
 10
225.2758045305132
 20
101.6282549072472
 10
224.4176373301846
 20
100.7700877069187
 10
223.3631140237544
 20
100.7700877069187
 97
        0
 97
        0
 75
     2
 76
     1
 98
        0
  0
SPLINE
  5
4D
330
1F
100
AcDbEntity
  8
prints
370
     0
100
AcDbSpline
210
0.0
220
0.0
230
1.0
 70
    11
 71
     3
 72
   107
 73
   103
 74
     0
 42
0.0000000001
 43
0.0000000001
 12
1.0
 22
0.0
 32
0.0
 13
1.0
 23
0.0
 33
0.0
 40
0.0
 40
0.0
 40
0.0
 40
0.0
 40
1.0
 40
1.0
 40
1.0
 40
2.0
 40
2.0
 40
2.0
 40
3.0
 40
3.0
 40
3.0
 40
4.0
 40
4.0
 40
4.0
 40
5.0
 40
5.0
 40
5.0
 40
6.0
 40
6.0
 40
6.0
 40
7.0
 40
7.0
 40
7.0
 40
8.0
 40
8.0
 40
8.0
 40
9.0
 40
9.0
 40
9.0
 40
10.0
 40
10.0
 40
10.0
 40
11.0
 40
11.0
 40
11.0
 40
12.0
 40
12.0
 40
12.0
 40
13.0
 40
13.0
 40
13.0
 40
14.0
 40
14.0
 40
14.0
 40
15.0
 40
15.0
 40
15.0
 40
16.0
 40
16.0
 40
16.0
 40
17.0
 40
17.0
 40
17.0
 40
18.0
 40
18.0
 40
18.0
 40
19.0
 40
19.0
 40
19.0
 40
20.0
 40
20.0
 40
20.0
 40
21.0
 40
21.0
 40
21.0
 40
22.0
 40
22.0
 40
22.0
 40
23.0
 40
23.0
 40
23.0
 40
24.0
 40
24.0
 40
24.0
 40
25.0
 40
25.0
 40
25.0
 40
26.0
 40
26.0
 40
26.0
 40
27.0
 40
27.0
 40
27.0
 40
28.0
 40
28.0
 40
28.0
 40
29.0
 40
29.0
 40
29.0
 40
30.0
 40
30.0
 40
30.0
 40
31.0
 40
31.0
 40
31.0
 40
32.0
 40
32.0
 40
32.0
 40
33.0
 40
33.0
 40
33.0
 40
34.0
 40
34.0
 40
34.0
 40
34.0
 10
223.3685115236167
 20
87.34163721617364
 30
0.0
 10
224.4750695509416
 20
87.34163721617364
 30
0.0
 10
225.4116592492695
 20
88.07880164181145
 30
0.0
 10
225.7154714637408
 20
89.08760494940807
 30
0.0
 10
225.7154714637408
 20
89.08760494940807
 30
0.0
 10
226.0692017324942
 20
89.08760494940807
 30
0.0
 10
226.0692017324942
 20
89.08760494940807
 30
0.0
 10
226.4026120017659
 20
86.73602362051302
 30
0.0
 10
228.2731455651558
 20
84.87730811237725
 30
0.0
 10
230.6307946716738
 20
84.56308895372698
 30
0.0
 10
230.6307946716738
 20
84.56308895372698
 30
0.0
 10
230.6307946716738
 20
82.0924098500926
 30
0.0
 10
230.6307946716738
 20
82.0924098500926
 30
0.0
 10
228.2827411204665
 20
81.7794959691868
 30
0.0
 10
226.4180989458153
 20
79.9345055355717
 30
0.0
 10
226.073576176827
 20
77.59650413145937
 30
0.0
 10
226.073576176827
 20
77.59650413145937
 30
0.0
 10
225.7148011859801
 20
77.59650413145937
 30
0.0
 10
225.7148011859801
 20
77.59650413145937
 30
0.0
 10
225.4109536937319
 20
78.6052721612791
 30
0.0
 10
224.4743639954041
 20
79.34247186469379
 30
0.0
 10
223.3678412458561
 20
79.34247186469379
 30
0.0
 10
222.0159615581232
 20
79.34247186469379
 30
0.0
 10
220.9162826972894
 20
78.24279300386004
 30
0.0
 10
220.9162826972894
 20
76.89094859390403
 30
0.0
 10
220.9162826972894
 20
75.53906890617114
 30
0.0
 10
222.0159615581232
 20
74.43939004533739
 30
0.0
 10
223.3678412458561
 20
74.43939004533739
 30
0.0
 10
224.4743639954041
 20
74.43939004533739
 30
0.0
 10
225.4109536937319
 20
75.17659164787258
 30
0.0
 10
225.7148011859801
 20
76.1853930563487
 30
0.0
 10
225.7148011859801
 20
76.1853930563487
 30
0.0
 10
226.0514217329478
 20
76.1853930563487
 30
0.0
 10
226.0514217329478
 20
76.1853930563487
 30
0.0
 10
226.3659583915899
 20
73.54640553716865
 30
0.0
 10
228.6140347231256
 20
71.49246095385314
 30
0.0
 10
231.3363502092291
 20
71.49246095385314
 30
0.0
 10
234.2732604120801
 20
71.49246095385314
 30
0.0
 10
236.6624478511268
 20
73.88164839289989
 30
0.0
 10
236.6624478511268
 20
76.81859387352773
 30
0.0
 10
236.6624478511268
 20
79.51579158249426
 30
0.0
 10
234.6456526248018
 20
81.74541763672288
 30
0.0
 10
232.0419057467845
 20
82.0924098500926
 30
0.0
 10
232.0419057467845
 20
82.0924098500926
 30
0.0
 10
232.0419057467845
 20
84.56308895372698
 30
0.0
 10
232.0419057467845
 20
84.56308895372698
 30
0.0
 10
234.6456526248018
 20
84.910083312106
 30
0.0
 10
236.6624478511268
 20
87.13974249910218
 30
0.0
 10
236.6624478511268
 20
89.83690493029184
 30
0.0
 10
236.6624478511268
 20
92.53410263925836
 30
0.0
 10
234.6456526248018
 20
94.76372869348698
 30
0.0
 10
232.0419057467845
 20
95.11072090685668
 30
0.0
 10
232.0419057467845
 20
95.11072090685668
 30
0.0
 10
232.0419057467845
 20
97.42106251458164
 30
0.0
 10
232.0419057467845
 20
97.42106251458164
 30
0.0
 10
234.6456526248018
 20
97.76805472795135
 30
0.0
 10
236.6624478511268
 20
99.9976833083341
 30
0.0
 10
236.6624478511268
 20
102.6948784911465
 30
0.0
 10
236.6624478511268
 20
105.392076200113
 30
0.0
 10
234.6456526248018
 20
107.6217022543416
 30
0.0
 10
232.0419057467845
 20
107.96869719523
 30
0.0
 10
232.0419057467845
 20
107.96869719523
 30
0.0
 10
232.0419057467845
 20
110.2187138613344
 30
0.0
 10
232.0419057467845
 20
110.2187138613344
 30
0.0
 10
234.6456879025787
 20
110.565703290345
 30
0.0
 10
236.6624831289037
 20
112.7953646223505
 30
0.0
 10
236.6624831289037
 20
115.4925270535402
 30
0.0
 10
236.6624831289037
 20
118.429472534168
 30
0.0
 10
234.273295689857
 20
120.8186599732147
 30
0.0
 10
231.3363502092291
 20
120.8186599732147
 30
0.0
 10
228.3994047286013
 20
120.8186599732147
 30
0.0
 10
226.0102582768307
 20
118.429472534168
 30
0.0
 10
226.0102582768307
 20
115.4925270535402
 30
0.0
 10
226.0102582768307
 20
112.7953646223505
 30
0.0
 10
228.0270125158796
 20
110.565703290345
 30
0.0
 10
230.6307946716738
 20
110.2187138613344
 30
0.0
 10
230.6307946716738
 20
110.2187138613344
 30
0.0
 10
230.6307946716738
 20
107.96869719523
 30
0.0
 10
230.6307946716738
 20
107.96869719523
 30
0.0
 10
228.0270125158796
 20
107.6217022543416
 30
0.0
 10
226.0102172895545
 20
105.392076200113
 30
0.0
 10
226.0102172895545
 20
102.6948784911465
 30
0.0
 10
226.0102172895545
 20
99.9976833083341
 30
0.0
 10
228.0270125158796
 20
97.76805472795135
 30
0.0
 10
230.6307946716738
 20
97.42106251458164
 30
0.0
 10
230.6307946716738
 20
97.42106251458164
 30
0.0
 10
230.6307946716738
 20
95.11072090685668
 30
0.0
 10
230.6307946716738
 20
95.11072090685668
 30
0.0
 10
228.2437944547935
 20
94.79265647052675
 30
0.0
 10
226.3543520029972
 20
92.89174874124517
 30
0.0
 10
226.0558314550575
 20
90.49871602451874
 30
0.0
 10
226.0558314550575
 20
90.49871602451874
 30
0.0
 10
225.7154714637408
 20
90.49871602451874
 30
0.0
 10
225.7154714637408
 20
90.49871602451874
 30
0.0
 10
225.4116592492695
 20
91.50751933211535
 30
0.0
 10
224.4750695509416
 20
92.24468608804986
 30
0.0
 10
223.3685115236167
 20
92.24468608804986
 30
0.0
 10
222.0166671136607
 20
92.24468608804986
 30
0.0
 10
220.916988252827
 20
91.14500489691943
 30
0.0
 10
220.916988252827
 20
89.7931604869634
 30
0.0
 10
220.916988252827
 20
88.44131607700739
 30
0.0
 10
222.0166671136607
 20
87.34163721617364
 30
0.0
 10
223.3685115236167
 20
87.34163721617364
 30
0.0
  0
SPLINE
  5
4E
330
1F
100
AcDbEntity
  8
prints
370
     0
100
AcDbSpline
210
0.0
220
0.0
230
1.0
 70
    11
 71
     3
 72
    17
 73
    13
 74
     0
 42
0.0000000001
 43
0.0000000001
 12
1.0
 22
0.0
 32
0.0
 13
1.0
 23
0.0
 33
0.0
 40
0.0
 40
0.0
 40
0.0
 40
0.0
 40
1.0
 40
1.0
 40
1.0
 40
2.0
 40
2.0
 40
2.0
 40
3.0
 40
3.0
 40
3.0
 40
4.0
 40
4.0
 40
4.0
 40
4.0
 10
223.3678412458561
 20
74.9782228093684
 30
0.0
 10
222.313282661649
 20
74.9782228093684
 30
0.0
 10
221.4551154613204
 20
75.83639000969696
 30
0.0
 10
221.4551154613204
 20
76.89094859390403
 30
0.0
 10
221.4551154613204
 20
77.94547190033423
 30
0.0
 10
222.313282661649
 20
78.80363910066279
 30
0.0
 10
223.3678412458561
 20
78.80363910066279
 30
0.0
 10
224.4223645522863
 20
78.80363910066279
 30
0.0
 10
225.2805317526148
 20
77.94547190033423
 30
0.0
 10
225.2805317526148
 20
76.89094859390403
 30
0.0
 10
225.2805317526148
 20
75.83639000969696
 30
0.0
 10
224.4223645522863
 20
74.9782228093684
 30
0.0
 10
223.3678412458561
 20
74.9782228093684
 30
0.0
  0
SPLINE
  5
4F
330
1F
100
AcDbEntity
  8
prints
370
     0
100
AcDbSpline
210
0.0
220
0.0
230
1.0
 70
    11
 71
     3
 72
    17
 73
    13
 74
     0
 42
0.0000000001
 43
0.0000000001
 12
1.0
 22
0.0
 32
0.0
 13
1.0
 23
0.0
 33
0.0
 40
0.0
 40
0.0
 40
0.0
 40
0.0
 40
1.0
 40
1.0
 40
1.0
 40
2.0
 40
2.0
 40
2.0
 40
3.0
 40
3.0
 40
3.0
 40
4.0
 40
4.0
 40
4.0
 40
4.0
 10
235.9568923135715
 20
76.81859387352773
 30
0.0
 10
235.9568923135715
 20
74.27093866074605
 30
0.0
 10
233.8839701442339
 20
72.19801649140848
 30
0.0
 10
231.3363502092291
 20
72.19801649140848
 30
0.0
 10
228.7886949964474
 20
72.19801649140848
 30
0.0
 10
226.7157728271099
 20
74.27093866074605
 30
0.0
 10
226.7157728271099
 20
76.81859387352773
 30
0.0
 10
226.7157728271099
 20
79.36624908630941
 30
0.0
 10
228.7886949964474
 20
81.43913597787011
 30
0.0
 10
231.3363502092291
 20
81.43913597787011
 30
0.0
 10
233.8839701442339
 20
81.43913597787011
 30
0.0
 10
235.9568923135715
 20
79.36624908630941
 30
0.0
 10
235.9568923135715
 20
76.81859387352773
 30
0.0
  0
SPLINE
  5
50
330
1F
100
AcDbEntity
  8
prints
370
     0
100
AcDbSpline
210
0.0
220
0.0
230
1.0
 70
    11
 71
     3
 72
    17
 73
    13
 74
     0
 42
0.0000000001
 43
0.0000000001
 12
1.0
 22
0.0
 32
0.0
 13
1.0
 23
0.0
 33
0.0
 40
0.0
 40
0.0
 40
0.0
 40
0.0
 40
1.0
 40
1.0
 40
1.0
 40
2.0
 40
2.0
 40
2.0
 40
3.0
 40
3.0
 40
3.0
 40
4.0
 40
4.0
 40
4.0
 40
4.0
 10
226.7158138322098
 20
115.4925270535402
 30
0.0
 10
226.7158138322098
 20
118.0401822663218
 30
0.0
 10
228.7886949964474
 20
120.1131044356594
 30
0.0
 10
231.3363502092291
 20
120.1131044356594
 30
0.0
 10
233.8840054220108
 20
120.1131044356594
 30
0.0
 10
235.9569275913484
 20
118.0401822663218
 30
0.0
 10
235.9569275913484
 20
115.4925270535402
 30
0.0
 10
235.9569275913484
 20
112.9449071185354
 30
0.0
 10
233.8840054220108
 20
110.8719849491978
 30
0.0
 10
231.3363502092291
 20
110.8719849491978
 30
0.0
 10
228.7886949964474
 20
110.8719849491978
 30
0.0
 10
226.7158138322098
 20
112.9449071185354
 30
0.0
 10
226.7158138322098
 20
115.4925270535402
 30
0.0
  0
SPLINE
  5
51
330
1F
100
AcDbEntity
  8
prints
370
     0
100
AcDbSpline
210
0.0
220
0.0
230
1.0
 70
    11
 71
     3
 72
    17
 73
    13
 74
     0
 42
0.0000000001
 43
0.0000000001
 12
1.0
 22
0.0
 32
0.0
 13
1.0
 23
0.0
 33
0.0
 40
0.0
 40
0.0
 40
0.0
 40
0.0
 40
1.0
 40
1.0
 40
1.0
 40
2.0
 40
2.0
 40
2.0
 40
3.0
 40
3.0
 40
3.0
 40
4.0
 40
4.0
 40
4.0
 40
4.0
 10
226.7157728271099
 20
102.6948784911465
 30
0.0
 10
226.7157728271099
 20
105.2425337039282
 30
0.0
 10
228.7886949964474
 20
107.3154205954889
 30
0.0
 10
231.3363502092291
 20
107.3154205954889
 30
0.0
 10
233.8839701442339
 20
107.3154205954889
 30
0.0
 10
235.9568923135715
 20
105.2425337039282
 30
0.0
 10
235.9568923135715
 20
102.6948784911465
 30
0.0
 10
235.9568923135715
 20
100.1472232783648
 30
0.0
 10
233.8839701442339
 20
98.07430110902725
 30
0.0
 10
231.3363502092291
 20
98.07430110902725
 30
0.0
 10
228.7886949964474
 20
98.07430110902725
 30
0.0
 10
226.7157728271099
 20
100.1472232783648
 30
0.0
 10
226.7157728271099
 20
102.6948784911465
 30
0.0
  0
SPLINE
  5
52
330
1F
100
AcDbEntity
  8
prints
370
     0
100
AcDbSpline
210
0.0
220
0.0
230
1.0
 70
    11
 71
     3
 72
    17
 73
    13
 74
     0
 42
0.0000000001
 43
0.0000000001
 12
1.0
 22
0.0
 32
0.0
 13
1.0
 23
0.0
 33
0.0
 40
0.0
 40
0.0
 40
0.0
 40
0.0
 40
1.0
 40
1.0
 40
1.0
 40
2.0
 40
2.0
 40
2.0
 40
3.0
 40
3.0
 40
3.0
 40
4.0
 40
4.0
 40
4.0
 40
4.0
 10
231.3363502092291
 20
94.45748231241109
 30
0.0
 10
233.8839701442339
 20
94.45748231241109
 30
0.0
 10
235.9568923135715
 20
92.38456014307351
 30
0.0
 10
235.9568923135715
 20
89.83690493029184
 30
0.0
 10
235.9568923135715
 20
87.28924971751016
 30
0.0
 10
233.8839701442339
 20
85.21636282594946
 30
0.0
 10
231.3363502092291
 20
85.21636282594946
 30
0.0
 10
228.7886949964474
 20
85.21636282594946
 30
0.0
 10
226.7157728271099
 20
87.28924971751016
 30
0.0
 10
226.7157728271099
 20
89.83690493029184
 30
0.0
 10
226.7157728271099
 20
92.38456014307351
 30
0.0
 10
228.7886949964474
 20
94.45748231241109
 30
0.0
 10
231.3363502092291
 20
94.45748231241109
 30
0.0
  0
SPLINE
  5
53
330
1F
100
AcDbEntity
  8
prints
370
     0
100
AcDbSpline
210
0.0
220
0.0
230
1.0
 70
    11
 71
     3
 72
    17
 73
    13
 74
     0
 42
0.0000000001
 43
0.0000000001
 12
1.0
 22
0.0
 32
0.0
 13
1.0
 23
0.0
 33
0.0
 40
0.0
 40
0.0
 40
0.0
 40
0.0
 40
1.0
 40
1.0
 40
1.0
 40
2.0
 40
2.0
 40
2.0
 40
3.0
 40
3.0
 40
3.0
 40
4.0
 40
4.0
 40
4.0
 40
4.0
 10
223.3685115236167
 20
91.70588627149904
 30
0.0
 10
224.4230701078238
 20
91.70588627149904
 30
0.0
 10
225.2812373081524
 20
90.84771907117049
 30
0.0
 10
225.2812373081524
 20
89.7931604869634
 30
0.0
 10
225.2812373081524
 20
88.73860190275633
 30
0.0
 10
224.4230701078238
 20
87.88043470242778
 30
0.0
 10
223.3685115236167
 20
87.88043470242778
 30
0.0
 10
222.3139882171865
 20
87.88043470242778
 30
0.0
 10
221.4557857390811
 20
88.73860190275633
 30
0.0
 10
221.4557857390811
 20
89.7931604869634
 30
0.0
 10
221.4557857390811
 20
90.84771907117049
 30
0.0
 10
222.3139882171865
 20
91.70588627149904
 30
0.0
 10
223.3685115236167
 20
91.70588627149904
 30
0.0
  0
HATCH
  5
54
330
1F
100
AcDbEntity
  8
prints
 62
     7
420
 16777215
100
AcDbHatch
 10
0.0
 20
0.0
 30
0.0
210
0.0
220
0.0
230
1.0
  2
SOLID
 70
     1
 71
     0
 91
        7
 92
        1
 93
        1
 72
     4
 94
        3
 73
     0
 74
     1
 95
      107
 96
      103
 40
0.0
 40
0.0
 40
0.0
 40
0.0
 40
1.0
 40
1.0
 40
1.0
 40
2.0
 40
2.0
 40
2.0
 40
3.0
 40
3.0
 40
3.0
 40
4.0
 40
4.0
 40
4.0
 40
5.0
 40
5.0
 40
5.0
 40
6.0
 40
6.0
 40
6.0
 40
7.0
 40
7.0
 40
7.0
 40
8.0
 40
8.0
 40
8.0
 40
9.0
 40
9.0
 40
9.0
 40
10.0
 40
10.0
 40
10.0
 40
11.0
 40
11.0
 40
11.0
 40
12.0
 40
12.0
 40
12.0
 40
13.0
 40
13.0
 40
13.0
 40
14.0
 40
14.0
 40
14.0
 40
15.0
 40
15.0
 40
15.0
 40
16.0
 40
16.0
 40
16.0
 40
17.0
 40
17.0
 40
17.0
 40
18.0
 40
18.0
 40
18.0
 40
19.0
 40
19.0
 40
19.0
 40
20.0
 40
20.0
 40
20.0
 40
21.0
 40
21.0
 40
21.0
 40
22.0
 40
22.0
 40
22.0
 40
23.0
 40
23.0
 40
23.0
 40
24.0
 40
24.0
 40
24.0
 40
25.0
 40
25.0
 40
25.0
 40
26.0
 40
26.0
 40
26.0
 40
27.0
 40
27.0
 40
27.0
 40
28.0
 40
28.0
 40
28.0
 40
29.0
 40
29.0
 40
29.0
 40
30.0
 40
30.0
 40
30.0
 40
31.0
 40
31.0
 40
31.0
 40
32.0
 40
32.0
 40
32.0
 40
33.0
 40
33.0
 40
33.0
 40
34.0
 40
34.0
 40
34.0
 40
34.0
 10
223.3685115236167
 20
87.34163721617364
 10
224.4750695509416
 20
87.34163721617364
 10
225.4116592492695
 20
88.07880164181145
 10
225.7154714637408
 20
89.08760494940807
 10
225.7154714637408
 20
89.08760494940807
 10
226.0692017324942
 20
89.08760494940807
 10
226.0692017324942
 20
89.08760494940807
 10
226.4026120017659
 20
86.73602362051302
 10
228.2731455651558
 20
84.87730811237725
 10
230.6307946716738
 20
84.56308895372698
 10
230.6307946716738
 20
84.56308895372698
 10
230.6307946716738
 20
82.0924098500926
 10
230.6307946716738
 20
82.0924098500926
 10
228.2827411204665
 20
81.7794959691868
 10
226.4180989458153
 20
79.9345055355717
 10
226.073576176827
 20
77.59650413145937
 10
226.073576176827
 20
77.59650413145937
 10
225.7148011859801
 20
77.59650413145937
 10
225.7148011859801
 20
77.59650413145937
 10
225.4109536937319
 20
78.6052721612791
 10
224.4743639954041
 20
79.34247186469379
 10
223.3678412458561
 20
79.34247186469379
 10
222.0159615581232
 20
79.34247186469379
 10
220.9162826972894
 20
78.24279300386004
 10
220.9162826972894
 20
76.89094859390403
 10
220.9162826972894
 20
75.53906890617114
 10
222.0159615581232
 20
74.43939004533739
 10
223.3678412458561
 20
74.43939004533739
 10
224.4743639954041
 20
74.43939004533739
 10
225.4109536937319
 20
75.17659164787258
 10
225.7148011859801
 20
76.1853930563487
 10
225.7148011859801
 20
76.1853930563487
 10
226.0514217329478
 20
76.1853930563487
 10
226.0514217329478
 20
76.1853930563487
 10
226.3659583915899
 20
73.54640553716865
 10
228.6140347231256
 20
71.49246095385314
 10
231.3363502092291
 20
71.49246095385314
 10
234.2732604120801
 20
71.49246095385314
 10
236.6624478511268
 20
73.88164839289989
 10
236.6624478511268
 20
76.81859387352773
 10
236.6624478511268
 20
79.51579158249426
 10
234.6456526248018
 20
81.74541763672288
 10
232.0419057467845
 20
82.0924098500926
 10
232.0419057467845
 20
82.0924098500926
 10
232.0419057467845
 20
84.56308895372698
 10
232.0419057467845
 20
84.56308895372698
 10
234.6456526248018
 20
84.910083312106
 10
236.6624478511268
 20
87.13974249910218
 10
236.6624478511268
 20
89.83690493029184
 10
236.6624478511268
 20
92.53410263925836
 10
234.6456526248018
 20
94.76372869348698
 10
232.0419057467845
 20
95.11072090685668
 10
232.0419057467845
 20
95.11072090685668
 10
232.0419057467845
 20
97.42106251458164
 10
232.0419057467845
 20
97.42106251458164
 10
234.6456526248018
 20
97.76805472795135
 10
236.6624478511268
 20
99.9976833083341
 10
236.6624478511268
 20
102.6948784911465
 10
236.6624478511268
 20
105.392076200113
 10
234.6456526248018
 20
107.6217022543416
 10
232.0419057467845
 20
107.96869719523
 10
232.0419057467845
 20
107.96869719523
 10
232.0419057467845
 20
110.2187138613344
 10
232.0419057467845
 20
110.2187138613344
 10
234.6456879025787
 20
110.565703290345
 10
236.6624831289037
 20
112.7953646223505
 10
236.6624831289037
 20
115.4925270535402
 10
236.6624831289037
 20
118.429472534168
 10
234.273295689857
 20
120.8186599732147
 10
231.3363502092291
 20
120.8186599732147
 10
228.3994047286013
 20
120.8186599732147
 10
226.0102582768307
 20
118.429472534168
 10
226.0102582768307
 20
115.4925270535402
 10
226.0102582768307
 20
112.7953646223505
 10
228.0270125158796
 20
110.565703290345
 10
230.6307946716738
 20
110.2187138613344
 10
230.6307946716738
 20
110.2187138613344
 10
230.6307946716738
 20
107.96869719523
 10
230.6307946716738
 20
107.96869719523
 10
228.0270125158796
 20
107.6217022543416
 10
226.0102172895545
 20
105.392076200113
 10
226.0102172895545
 20
102.6948784911465
 10
226.0102172895545
 20
99.9976833083341
 10
228.0270125158796
 20
97.76805472795135
 10
230.6307946716738
 20
97.42106251458164
 10
230.6307946716738
 20
97.42106251458164
 10
230.6307946716738
 20
95.11072090685668
 10
230.6307946716738
 20
95.11072090685668
 10
228.2437944547935
 20
94.79265647052675
 10
226.3543520029972
 20
92.89174874124517
 10
226.0558314550575
 20
90.49871602451874
 10
226.0558314550575
 20
90.49871602451874
 10
225.7154714637408
 20
90.49871602451874
 10
225.7154714637408
 20
90.49871602451874
 10
225.4116592492695
 20
91.50751933211535
 10
224.4750695509416
 20
92.24468608804986
 10
223.3685115236167
 20
92.24468608804986
 10
222.0166671136607
 20
92.24468608804986
 10
220.916988252827
 20
91.14500489691943
 10
220.916988252827
 20
89.7931604869634
 10
220.916988252827
 20
88.44131607700739
 10
222.0166671136607
 20
87.34163721617364
 10
223.3685115236167
 20
87.34163721617364
 97
        0
 97
        0
 92
        1
 93
        1
 72
     4
 94
        3
 73
     0
 74
     1
 95
       17
 96
       13
 40
0.0
 40
0.0
 40
0.0
 40
0.0
 40
1.0
 40
1.0
 40
1.0
 40
2.0
 40
2.0
 40
2.0
 40
3.0
 40
3.0
 40
3.0
 40
4.0
 40
4.0
 40
4.0
 40
4.0
 10
223.3678412458561
 20
74.9782228093684
 10
222.313282661649
 20
74.9782228093684
 10
221.4551154613204
 20
75.83639000969696
 10
221.4551154613204
 20
76.89094859390403
 10
221.4551154613204
 20
77.94547190033423
 10
222.313282661649
 20
78.80363910066279
 10
223.3678412458561
 20
78.80363910066279
 10
224.4223645522863
 20
78.80363910066279
 10
225.2805317526148
 20
77.94547190033423
 10
225.2805317526148
 20
76.89094859390403
 10
225.2805317526148
 20
75.83639000969696
 10
224.4223645522863
 20
74.9782228093684
 10
223.3678412458561
 20
74.9782228093684
 97
        0
 97
        0
 92
        1
 93
        1
 72
     4
 94
        3
 73
     0
 74
     1
 95
       17
 96
       13
 40
0.0
 40
0.0
 40
0.0
 40
0.0
 40
1.0
 40
1.0
 40
1.0
 40
2.0
 40
2.0
 40
2.0
 40
3.0
 40
3.0
 40
3.0
 40
4.0
 40
4.0
 40
4.0
 40
4.0
 10
235.9568923135715
 20
76.81859387352773
 10
235.9568923135715
 20
74.27093866074605
 10
233.8839701442339
 20
72.19801649140848
 10
231.3363502092291
 20
72.19801649140848
 10
228.7886949964474
 20
72.19801649140848
 10
226.7157728271099
 20
74.27093866074605
 10
226.7157728271099
 20
76.81859387352773
 10
226.7157728271099
 20
79.36624908630941
 10
228.7886949964474
 20
81.43913597787011
 10
231.3363502092291
 20
81.43913597787011
 10
233.8839701442339
 20
81.43913597787011
 10
235.9568923135715
 20
79.36624908630941
 10
235.9568923135715
 20
76.81859387352773
 97
        0
 97
        0
 92
        1
 93
        1
 72
     4
 94
        3
 73
     0
 74
     1
 95
       17
 96
       13
 40
0.0
 40
0.0
 40
0.0
 40
0.0
 40
1.0
 40
1.0
 40
1.0
 40
2.0
 40
2.0
 40
2.0
 40
3.0
 40
3.0
 40
3.0
 40
4.0
 40
4.0
 40
4.0
 40
4.0
 10
226.7158138322098
 20
115.4925270535402
 10
226.7158138322098
 20
118.0401822663218
 10
228.7886949964474
 20
120.1131044356594
 10
231.3363502092291
 20
120.1131044356594
 10
233.8840054220108
 20
120.1131044356594
 10
235.9569275913484
 20
118.0401822663218
 10
235.9569275913484
 20
115.4925270535402
 10
235.9569275913484
 20
112.9449071185354
 10
233.8840054220108
 20
110.8719849491978
 10
231.3363502092291
 20
110.8719849491978
 10
228.7886949964474
 20
110.8719849491978
 10
226.7158138322098
 20
112.9449071185354
 10
226.7158138322098
 20
115.4925270535402
 97
        0
 97
        0
 92
        1
 93
        1
 72
     4
 94
        3
 73
     0
 74
     1
 95
       17
 96
       13
 40
0.0
 40
0.0
 40
0.0
 40
0.0
 40
1.0
 40
1.0
 40
1.0
 40
2.0
 40
2.0
 40
2.0
 40
3.0
 40
3.0
 40
3.0
 40
4.0
 40
4.0
 40
4.0
 40
4.0
 10
226.7157728271099
 20
102.6948784911465
 10
226.7157728271099
 20
105.2425337039282
 10
228.7886949964474
 20
107.3154205954889
 10
231.3363502092291
 20
107.3154205954889
 10
233.8839701442339
 20
107.3154205954889
 10
235.9568923135715
 20
105.2425337039282
 10
235.9568923135715
 20
102.6948784911465
 10
235.9568923135715
 20
100.1472232783648
 10
233.8839701442339
 20
98.07430110902725
 10
231.3363502092291
 20
98.07430110902725
 10
228.7886949964474
 20
98.07430110902725
 10
226.7157728271099
 20
100.1472232783648
 10
226.7157728271099
 20
102.6948784911465
 97
        0
 97
        0
 92
        1
 93
        1
 72
     4
 94
        3
 73
     0
 74
     1
 95
       17
 96
       13
 40
0.0
 40
0.0
 40
0.0
 40
0.0
 40
1.0
 40
1.0
 40
1.0
 40
2.0
 40
2.0
 40
2.0
 40
3.0
 40
3.0
 40
3.0
 40
4.0
 40
4.0
 40
4.0
 40
4.0
 10
231.3363502092291
 20
94.45748231241109
 10
233.8839701442339
 20
94.45748231241109
 10
235.9568923135715
 20
92.38456014307351
 10
235.9568923135715
 20
89.83690493029184
 10
235.9568923135715
 20
87.28924971751016
 10
233.8839701442339
 20
85.21636282594946
 10
231.3363502092291
 20
85.21636282594946
 10
228.7886949964474
 20
85.21636282594946
 10
226.7157728271099
 20
87.28924971751016
 10
226.7157728271099
 20
89.83690493029184
 10
226.7157728271099
 20
92.38456014307351
 10
228.7886949964474
 20
94.45748231241109
 10
231.3363502092291
 20
94.45748231241109
 97
        0
 97
        0
 92
        1
 93
        1
 72
     4
 94
        3
 73
     0
 74
     1
 95
       17
 96
       13
 40
0.0
 40
0.0
 40
0.0
 40
0.0
 40
1.0
 40
1.0
 40
1.0
 40
2.0
 40
2.0
 40
2.0
 40
3.0
 40
3.0
 40
3.0
 40
4.0
 40
4.0
 40
4.0
 40
4.0
 10
223.3685115236167
 20
91.70588627149904
 10
224.4230701078238
 20
91.70588627149904
 10
225.2812373081524
 20
90.84771907117049
 10
225.2812373081524
 20
89.7931604869634
 10
225.2812373081524
 20
88.73860190275633
 10
224.4230701078238
 20
87.88043470242778
 10
223.3685115236167
 20
87.88043470242778
 10
222.3139882171865
 20
87.88043470242778
 10
221.4557857390811
 20
88.73860190275633
 10
221.4557857390811
 20
89.7931604869634
 10
221.4557857390811
 20
90.84771907117049
 10
222.3139882171865
 20
91.70588627149904
 10
223.3685115236167
 20
91.70588627149904
 97
        0
 97
        0
 75
     2
 76
     1
 98
        0
  0
SPLINE
  5
55
330
1F
100
AcDbEntity
  8
prints
370
     0
100
AcDbSpline
210
0.0
220
0.0
230
1.0
 70
    11
 71
     3
 72
   107
 73
   103
 74
     0
 42
0.0000000001
 43
0.0000000001
 12
1.0
 22
0.0
 32
0.0
 13
1.0
 23
0.0
 33
0.0
 40
0.0
 40
0.0
 40
0.0
 40
0.0
 40
1.0
 40
1.0
 40
1.0
 40
2.0
 40
2.0
 40
2.0
 40
3.0
 40
3.0
 40
3.0
 40
4.0
 40
4.0
 40
4.0
 40
5.0
 40
5.0
 40
5.0
 40
6.0
 40
6.0
 40
6.0
 40
7.0
 40
7.0
 40
7.0
 40
8.0
 40
8.0
 40
8.0
 40
9.0
 40
9.0
 40
9.0
 40
10.0
 40
10.0
 40
10.0
 40
11.0
 40
11.0
 40
11.0
 40
12.0
 40
12.0
 40
12.0
 40
13.0
 40
13.0
 40
13.0
 40
14.0
 40
14.0
 40
14.0
 40
15.0
 40
15.0
 40
15.0
 40
16.0
 40
16.0
 40
16.0
 40
17.0
 40
17.0
 40
17.0
 40
18.0
 40
18.0
 40
18.0
 40
19.0
 40
19.0
 40
19.0
 40
20.0
 40
20.0
 40
20.0
 40
21.0
 40
21.0
 40
21.0
 40
22.0
 40
22.0
 40
22.0
 40
23.0
 40
23.0
 40
23.0
 40
24.0
 40
24.0
 40
24.0
 40
25.0
 40
25.0
 40
25.0
 40
26.0
 40
26.0
 40
26.0
 40
27.0
 40
27.0
 40
27.0
 40
28.0
 40
28.0
 40
28.0
 40
29.0
 40
29.0
 40
29.0
 40
30.0
 40
30.0
 40
30.0
 40
31.0
 40
31.0
 40
31.0
 40
32.0
 40
32.0
 40
32.0
 40
33.0
 40
33.0
 40
33.0
 40
34.0
 40
34.0
 40
34.0
 40
34.0
 10
223.3789537455725
 20
53.5371661341531
 30
0.0
 10
222.2723957182477
 20
53.5371661341531
 30
0.0
 10
221.3358060199198
 20
52.79996643073841
 30
0.0
 10
221.0319585276716
 20
51.79119840091867
 30
0.0
 10
221.0319585276716
 20
51.79119840091867
 30
0.0
 10
220.6782635366951
 20
51.79119840091867
 30
0.0
 10
220.6782635366951
 20
51.79119840091867
 30
0.0
 10
220.3448532674234
 20
54.14277972981372
 30
0.0
 10
218.4743197040335
 20
56.0014952379495
 30
0.0
 10
216.1166705975155
 20
56.31568054147672
 30
0.0
 10
216.1166705975155
 20
56.31568054147672
 30
0.0
 10
216.1166705975155
 20
58.78639350023415
 30
0.0
 10
216.1166705975155
 20
58.78639350023415
 30
0.0
 10
218.4647241487228
 20
59.09927210336307
 30
0.0
 10
220.329366323374
 20
60.94429983407026
 30
0.0
 10
220.6738890923623
 20
63.28229921886738
 30
0.0
 10
220.6738890923623
 20
63.28229921886738
 30
0.0
 10
221.0326640832092
 20
63.28229921886738
 30
0.0
 10
221.0326640832092
 20
63.28229921886738
 30
0.0
 10
221.3365115754574
 20
62.27349591127076
 30
0.0
 10
222.2731012737852
 20
61.53633148563295
 30
0.0
 10
223.3796240233332
 20
61.53633148563295
 30
0.0
 10
224.7315037110661
 20
61.53633148563295
 30
0.0
 10
225.831147294123
 20
62.63601034646669
 30
0.0
 10
225.831147294123
 20
63.98785475642271
 30
0.0
 10
225.831147294123
 20
65.33969916637874
 30
0.0
 10
224.7315037110661
 20
66.43937802721247
 30
0.0
 10
223.3796240233332
 20
66.43937802721247
 30
0.0
 10
222.2731012737852
 20
66.43937802721247
 30
0.0
 10
221.3365115754574
 20
65.70221360157467
 30
0.0
 10
221.0326640832092
 20
64.69341029397805
 30
0.0
 10
221.0326640832092
 20
64.69341029397805
 30
0.0
 10
220.6960435362415
 20
64.69341029397805
 30
0.0
 10
220.6960435362415
 20
64.69341029397805
 30
0.0
 10
220.3815068775993
 20
67.33239967109627
 30
0.0
 10
218.1334360565778
 20
69.38630711869672
 30
0.0
 10
215.4111150599602
 20
69.38630711869672
 30
0.0
 10
212.4741749468817
 20
69.38630711869672
 30
0.0
 10
210.0850174180624
 20
66.99715495742684
 30
0.0
 10
210.0850174180624
 20
64.06021109509597
 30
0.0
 10
210.0850174180624
 20
61.36301176783248
 30
0.0
 10
212.1018126443875
 20
59.13338571360387
 30
0.0
 10
214.7055595224048
 20
58.78639350023415
 30
0.0
 10
214.7055595224048
 20
58.78639350023415
 30
0.0
 10
214.7055595224048
 20
56.31568054147672
 30
0.0
 10
214.7055595224048
 20
56.31568054147672
 30
0.0
 10
212.1018126443875
 20
55.96872218323005
 30
0.0
 10
210.0850174180624
 20
53.73906085122456
 30
0.0
 10
210.0850174180624
 20
51.04186314225803
 30
0.0
 10
210.0850174180624
 20
48.34470071106838
 30
0.0
 10
212.1018126443875
 20
46.11503937906289
 30
0.0
 10
214.7055595224048
 20
45.76804716569318
 30
0.0
 10
214.7055595224048
 20
45.76804716569318
 30
0.0
 10
214.7055595224048
 20
43.45774083574511
 30
0.0
 10
214.7055595224048
 20
43.45774083574511
 30
0.0
 10
212.1018126443875
 20
43.1107486223754
 30
0.0
 10
210.0850174180624
 20
40.88112256814679
 30
0.0
 10
210.0850174180624
 20
38.18392485918025
 30
0.0
 10
210.0850174180624
 20
35.48672715021372
 30
0.0
 10
212.1018126443875
 20
33.25710193613022
 30
0.0
 10
214.7055595224048
 20
32.9101097139949
 30
0.0
 10
214.7055595224048
 20
32.9101097139949
 30
0.0
 10
214.7055595224048
 20
30.660057770113
 30
0.0
 10
214.7055595224048
 20
30.660057770113
 30
0.0
 10
212.1017773666106
 20
30.3131008257552
 30
0.0
 10
210.0849821402856
 20
28.08343943742329
 30
0.0
 10
210.0849821402856
 20
25.38624166031987
 30
0.0
 10
210.0849821402856
 20
22.4492961054988
 30
0.0
 10
212.4741749468817
 20
20.06014388387392
 30
0.0
 10
215.4111150599602
 20
20.06014388387392
 30
0.0
 10
218.348060540588
 20
20.06014388387392
 30
0.0
 10
220.7372127018579
 20
22.4492961054988
 30
0.0
 10
220.7372127018579
 20
25.38624166031987
 30
0.0
 10
220.7372127018579
 20
28.08340415964577
 30
0.0
 10
218.7204582786535
 20
30.3131008257552
 30
0.0
 10
216.1166705975155
 20
30.660057770113
 30
0.0
 10
216.1166705975155
 20
30.660057770113
 30
0.0
 10
216.1166705975155
 20
32.9101097139949
 30
0.0
 10
216.1166705975155
 20
32.9101097139949
 30
0.0
 10
218.7204582786535
 20
33.25710193613022
 30
0.0
 10
220.7372479796348
 20
35.48672715021372
 30
0.0
 10
220.7372479796348
 20
38.18392485918025
 30
0.0
 10
220.7372479796348
 20
40.88112256814679
 30
0.0
 10
218.7204582786535
 20
43.1107486223754
 30
0.0
 10
216.1166705975155
 20
43.45774083574511
 30
0.0
 10
216.1166705975155
 20
43.45774083574511
 30
0.0
 10
216.1166705975155
 20
45.76804716569318
 30
0.0
 10
216.1166705975155
 20
45.76804716569318
 30
0.0
 10
218.5036708143958
 20
46.0861468798
 30
0.0
 10
220.3931132661921
 20
47.98705460908158
 30
0.0
 10
220.6916338141318
 20
50.38008732580801
 30
0.0
 10
220.6916338141318
 20
50.38008732580801
 30
0.0
 10
221.0319585276716
 20
50.38008732580801
 30
0.0
 10
221.0319585276716
 20
50.38008732580801
 30
0.0
 10
221.3358060199198
 20
49.37128401821138
 30
0.0
 10
222.2723957182477
 20
48.6340843147967
 30
0.0
 10
223.3789537455725
 20
48.6340843147967
 30
0.0
 10
224.7307981555286
 20
48.6340843147967
 30
0.0
 10
225.8304770163623
 20
49.73376317563044
 30
0.0
 10
225.8304770163623
 20
51.08564286336334
 30
0.0
 10
225.8304770163623
 20
52.43748727331936
 30
0.0
 10
224.7307981555286
 20
53.5371661341531
 30
0.0
 10
223.3789537455725
 20
53.5371661341531
 30
0.0
  0
SPLINE
  5
56
330
1F
100
AcDbEntity
  8
prints
370
     0
100
AcDbSpline
210
0.0
220
0.0
230
1.0
 70
    11
 71
     3
 72
    17
 73
    13
 74
     0
 42
0.0000000001
 43
0.0000000001
 12
1.0
 22
0.0
 32
0.0
 13
1.0
 23
0.0
 33
0.0
 40
0.0
 40
0.0
 40
0.0
 40
0.0
 40
1.0
 40
1.0
 40
1.0
 40
2.0
 40
2.0
 40
2.0
 40
3.0
 40
3.0
 40
3.0
 40
4.0
 40
4.0
 40
4.0
 40
4.0
 10
223.3796240233332
 20
65.90058054095834
 30
0.0
 10
224.4341826075403
 20
65.90058054095834
 30
0.0
 10
225.2923554992324
 20
65.04241334062979
 30
0.0
 10
225.2923554992324
 20
63.98785475642271
 30
0.0
 10
225.2923554992324
 20
62.93329617221563
 30
0.0
 10
224.4341826075403
 20
62.07513054003654
 30
0.0
 10
223.3796240233332
 20
62.07513054003654
 30
0.0
 10
222.325100716903
 20
62.07513054003654
 30
0.0
 10
221.4669335165745
 20
62.93329617221563
 30
0.0
 10
221.4669335165745
 20
63.98785475642271
 30
0.0
 10
221.4669335165745
 20
65.04241334062979
 30
0.0
 10
222.325100716903
 20
65.90058054095834
 30
0.0
 10
223.3796240233332
 20
65.90058054095834
 30
0.0
  0
SPLINE
  5
57
330
1F
100
AcDbEntity
  8
prints
370
     0
100
AcDbSpline
210
0.0
220
0.0
230
1.0
 70
    11
 71
     3
 72
    17
 73
    13
 74
     0
 42
0.0000000001
 43
0.0000000001
 12
1.0
 22
0.0
 32
0.0
 13
1.0
 23
0.0
 33
0.0
 40
0.0
 40
0.0
 40
0.0
 40
0.0
 40
1.0
 40
1.0
 40
1.0
 40
2.0
 40
2.0
 40
2.0
 40
3.0
 40
3.0
 40
3.0
 40
4.0
 40
4.0
 40
4.0
 40
4.0
 10
210.7905729556178
 20
64.06021109509597
 30
0.0
 10
210.7905729556178
 20
66.6078646895807
 30
0.0
 10
212.8634951249554
 20
68.68075158114138
 30
0.0
 10
215.4111150599602
 20
68.68075158114138
 30
0.0
 10
217.9587702727418
 20
68.68075158114138
 30
0.0
 10
220.0316924420794
 20
66.6078646895807
 30
0.0
 10
220.0316924420794
 20
64.06021109509597
 30
0.0
 10
220.0316924420794
 20
61.51255426401733
 30
0.0
 10
217.9587702727418
 20
59.43963209467976
 30
0.0
 10
215.4111150599602
 20
59.43963209467976
 30
0.0
 10
212.8634951249554
 20
59.43963209467976
 30
0.0
 10
210.7905729556178
 20
61.51255426401733
 30
0.0
 10
210.7905729556178
 20
64.06021109509597
 30
0.0
  0
SPLINE
  5
58
330
1F
100
AcDbEntity
  8
prints
370
     0
100
AcDbSpline
210
0.0
220
0.0
230
1.0
 70
    11
 71
     3
 72
    17
 73
    13
 74
     0
 42
0.0000000001
 43
0.0000000001
 12
1.0
 22
0.0
 32
0.0
 13
1.0
 23
0.0
 33
0.0
 40
0.0
 40
0.0
 40
0.0
 40
0.0
 40
1.0
 40
1.0
 40
1.0
 40
2.0
 40
2.0
 40
2.0
 40
3.0
 40
3.0
 40
3.0
 40
4.0
 40
4.0
 40
4.0
 40
4.0
 10
220.0316571643025
 20
25.38624166031987
 30
0.0
 10
220.0316571643025
 20
22.83862166095715
 30
0.0
 10
217.9587702727418
 20
20.76569943925309
 30
0.0
 10
215.4111150599602
 20
20.76569943925309
 30
0.0
 10
212.8634598471785
 20
20.76569943925309
 30
0.0
 10
210.7905376778409
 20
22.83862166095715
 30
0.0
 10
210.7905376778409
 20
25.38624166031987
 30
0.0
 10
210.7905376778409
 20
27.93389693746076
 30
0.0
 10
212.8634598471785
 20
30.00681915916482
 30
0.0
 10
215.4111150599602
 20
30.00681915916482
 30
0.0
 10
217.9587702727418
 20
30.00681915916482
 30
0.0
 10
220.0316571643025
 20
27.93389693746076
 30
0.0
 10
220.0316571643025
 20
25.38624166031987
 30
0.0
  0
SPLINE
  5
59
330
1F
100
AcDbEntity
  8
prints
370
     0
100
AcDbSpline
210
0.0
220
0.0
230
1.0
 70
    11
 71
     3
 72
    17
 73
    13
 74
     0
 42
0.0000000001
 43
0.0000000001
 12
1.0
 22
0.0
 32
0.0
 13
1.0
 23
0.0
 33
0.0
 40
0.0
 40
0.0
 40
0.0
 40
0.0
 40
1.0
 40
1.0
 40
1.0
 40
2.0
 40
2.0
 40
2.0
 40
3.0
 40
3.0
 40
3.0
 40
4.0
 40
4.0
 40
4.0
 40
4.0
 10
220.0316924420794
 20
38.18392485918025
 30
0.0
 10
220.0316924420794
 20
35.63626964639857
 30
0.0
 10
217.9587702727418
 20
33.56334832494244
 30
0.0
 10
215.4111150599602
 20
33.56334832494244
 30
0.0
 10
212.8634951249554
 20
33.56334832494244
 30
0.0
 10
210.7905729556178
 20
35.63626964639857
 30
0.0
 10
210.7905729556178
 20
38.18392485918025
 30
0.0
 10
210.7905729556178
 20
40.73158007196193
 30
0.0
 10
212.8634951249554
 20
42.80446696352263
 30
0.0
 10
215.4111150599602
 20
42.80446696352263
 30
0.0
 10
217.9587702727418
 20
42.80446696352263
 30
0.0
 10
220.0316924420794
 20
40.73158007196193
 30
0.0
 10
220.0316924420794
 20
38.18392485918025
 30
0.0
  0
SPLINE
  5
5A
330
1F
100
AcDbEntity
  8
prints
370
     0
100
AcDbSpline
210
0.0
220
0.0
230
1.0
 70
    11
 71
     3
 72
    17
 73
    13
 74
     0
 42
0.0000000001
 43
0.0000000001
 12
1.0
 22
0.0
 32
0.0
 13
1.0
 23
0.0
 33
0.0
 40
0.0
 40
0.0
 40
0.0
 40
0.0
 40
1.0
 40
1.0
 40
1.0
 40
2.0
 40
2.0
 40
2.0
 40
3.0
 40
3.0
 40
3.0
 40
4.0
 40
4.0
 40
4.0
 40
4.0
 10
215.4111150599602
 20
46.4213222106168
 30
0.0
 10
212.8634951249554
 20
46.4213222106168
 30
0.0
 10
210.7905729556178
 20
48.49424443232086
 30
0.0
 10
210.7905729556178
 20
51.04186314225803
 30
0.0
 10
210.7905729556178
 20
53.58951835503971
 30
0.0
 10
212.8634951249554
 20
55.66244052437728
 30
0.0
 10
215.4111150599602
 20
55.66244052437728
 30
0.0
 10
217.9587702727418
 20
55.66244052437728
 30
0.0
 10
220.0316924420794
 20
53.58951835503971
 30
0.0
 10
220.0316924420794
 20
51.04186314225803
 30
0.0
 10
220.0316924420794
 20
48.49424443232086
 30
0.0
 10
217.9587702727418
 20
46.4213222106168
 30
0.0
 10
215.4111150599602
 20
46.4213222106168
 30
0.0
  0
SPLINE
  5
5B
330
1F
100
AcDbEntity
  8
prints
370
     0
100
AcDbSpline
210
0.0
220
0.0
230
1.0
 70
    11
 71
     3
 72
    17
 73
    13
 74
     0
 42
0.0000000001
 43
0.0000000001
 12
1.0
 22
0.0
 32
0.0
 13
1.0
 23
0.0
 33
0.0
 40
0.0
 40
0.0
 40
0.0
 40
0.0
 40
1.0
 40
1.0
 40
1.0
 40
2.0
 40
2.0
 40
2.0
 40
3.0
 40
3.0
 40
3.0
 40
4.0
 40
4.0
 40
4.0
 40
4.0
 10
223.3789537455725
 20
49.1729170788277
 30
0.0
 10
222.3243951613655
 20
49.1729170788277
 30
0.0
 10
221.4662279610369
 20
50.03108427915626
 30
0.0
 10
221.4662279610369
 20
51.08564286336334
 30
0.0
 10
221.4662279610369
 20
52.14016616979354
 30
0.0
 10
222.3243951613655
 20
52.99833337012209
 30
0.0
 10
223.3789537455725
 20
52.99833337012209
 30
0.0
 10
224.4334770520028
 20
52.99833337012209
 30
0.0
 10
225.2916795301082
 20
52.14016616979354
 30
0.0
 10
225.2916795301082
 20
51.08564286336334
 30
0.0
 10
225.2916795301082
 20
50.03108427915626
 30
0.0
 10
224.4334770520028
 20
49.1729170788277
 30
0.0
 10
223.3789537455725
 20
49.1729170788277
 30
0.0
  0
HATCH
  5
5C
330
1F
100
AcDbEntity
  8
prints
 62
     7
420
 16777215
100
AcDbHatch
 10
0.0
 20
0.0
 30
0.0
210
0.0
220
0.0
230
1.0
  2
SOLID
 70
     1
 71
     0
 91
        7
 92
        1
 93
        1
 72
     4
 94
        3
 73
     0
 74
     1
 95
      107
 96
      103
 40
0.0
 40
0.0
 40
0.0
 40
0.0
 40
1.0
 40
1.0
 40
1.0
 40
2.0
 40
2.0
 40
2.0
 40
3.0
 40
3.0
 40
3.0
 40
4.0
 40
4.0
 40
4.0
 40
5.0
 40
5.0
 40
5.0
 40
6.0
 40
6.0
 40
6.0
 40
7.0
 40
7.0
 40
7.0
 40
8.0
 40
8.0
 40
8.0
 40
9.0
 40
9.0
 40
9.0
 40
10.0
 40
10.0
 40
10.0
 40
11.0
 40
11.0
 40
11.0
 40
12.0
 40
12.0
 40
12.0
 40
13.0
 40
13.0
 40
13.0
 40
14.0
 40
14.0
 40
14.0
 40
15.0
 40
15.0
 40
15.0
 40
16.0
 40
16.0
 40
16.0
 40
17.0
 40
17.0
 40
17.0
 40
18.0
 40
18.0
 40
18.0
 40
19.0
 40
19.0
 40
19.0
 40
20.0
 40
20.0
 40
20.0
 40
21.0
 40
21.0
 40
21.0
 40
22.0
 40
22.0
 40
22.0
 40
23.0
 40
23.0
 40
23.0
 40
24.0
 40
24.0
 40
24.0
 40
25.0
 40
25.0
 40
25.0
 40
26.0
 40
26.0
 40
26.0
 40
27.0
 40
27.0
 40
27.0
 40
28.0
 40
28.0
 40
28.0
 40
29.0
 40
29.0
 40
29.0
 40
30.0
 40
30.0
 40
30.0
 40
31.0
 40
31.0
 40
31.0
 40
32.0
 40
32.0
 40
32.0
 40
33.0
 40
33.0
 40
33.0
 40
34.0
 40
34.0
 40
34.0
 40
34.0
 10
223.3789537455725
 20
53.5371661341531
 10
222.2723957182477
 20
53.5371661341531
 10
221.3358060199198
 20
52.79996643073841
 10
221.0319585276716
 20
51.79119840091867
 10
221.0319585276716
 20
51.79119840091867
 10
220.6782635366951
 20
51.79119840091867
 10
220.6782635366951
 20
51.79119840091867
 10
220.3448532674234
 20
54.14277972981372
 10
218.4743197040335
 20
56.0014952379495
 10
216.1166705975155
 20
56.31568054147672
 10
216.1166705975155
 20
56.31568054147672
 10
216.1166705975155
 20
58.78639350023415
 10
216.1166705975155
 20
58.78639350023415
 10
218.4647241487228
 20
59.09927210336307
 10
220.329366323374
 20
60.94429983407026
 10
220.6738890923623
 20
63.28229921886738
 10
220.6738890923623
 20
63.28229921886738
 10
221.0326640832092
 20
63.28229921886738
 10
221.0326640832092
 20
63.28229921886738
 10
221.3365115754574
 20
62.27349591127076
 10
222.2731012737852
 20
61.53633148563295
 10
223.3796240233332
 20
61.53633148563295
 10
224.7315037110661
 20
61.53633148563295
 10
225.831147294123
 20
62.63601034646669
 10
225.831147294123
 20
63.98785475642271
 10
225.831147294123
 20
65.33969916637874
 10
224.7315037110661
 20
66.43937802721247
 10
223.3796240233332
 20
66.43937802721247
 10
222.2731012737852
 20
66.43937802721247
 10
221.3365115754574
 20
65.70221360157467
 10
221.0326640832092
 20
64.69341029397805
 10
221.0326640832092
 20
64.69341029397805
 10
220.6960435362415
 20
64.69341029397805
 10
220.6960435362415
 20
64.69341029397805
 10
220.3815068775993
 20
67.33239967109627
 10
218.1334360565778
 20
69.38630711869672
 10
215.4111150599602
 20
69.38630711869672
 10
212.4741749468817
 20
69.38630711869672
 10
210.0850174180624
 20
66.99715495742684
 10
210.0850174180624
 20
64.06021109509597
 10
210.0850174180624
 20
61.36301176783248
 10
212.1018126443875
 20
59.13338571360387
 10
214.7055595224048
 20
58.78639350023415
 10
214.7055595224048
 20
58.78639350023415
 10
214.7055595224048
 20
56.31568054147672
 10
214.7055595224048
 20
56.31568054147672
 10
212.1018126443875
 20
55.96872218323005
 10
210.0850174180624
 20
53.73906085122456
 10
210.0850174180624
 20
51.04186314225803
 10
210.0850174180624
 20
48.34470071106838
 10
212.1018126443875
 20
46.11503937906289
 10
214.7055595224048
 20
45.76804716569318
 10
214.7055595224048
 20
45.76804716569318
 10
214.7055595224048
 20
43.45774083574511
 10
214.7055595224048
 20
43.45774083574511
 10
212.1018126443875
 20
43.1107486223754
 10
210.0850174180624
 20
40.88112256814679
 10
210.0850174180624
 20
38.18392485918025
 10
210.0850174180624
 20
35.48672715021372
 10
212.1018126443875
 20
33.25710193613022
 10
214.7055595224048
 20
32.9101097139949
 10
214.7055595224048
 20
32.9101097139949
 10
214.7055595224048
 20
30.660057770113
 10
214.7055595224048
 20
30.660057770113
 10
212.1017773666106
 20
30.3131008257552
 10
210.0849821402856
 20
28.08343943742329
 10
210.0849821402856
 20
25.38624166031987
 10
210.0849821402856
 20
22.4492961054988
 10
212.4741749468817
 20
20.06014388387392
 10
215.4111150599602
 20
20.06014388387392
 10
218.348060540588
 20
20.06014388387392
 10
220.7372127018579
 20
22.4492961054988
 10
220.7372127018579
 20
25.38624166031987
 10
220.7372127018579
 20
28.08340415964577
 10
218.7204582786535
 20
30.3131008257552
 10
216.1166705975155
 20
30.660057770113
 10
216.1166705975155
 20
30.660057770113
 10
216.1166705975155
 20
32.9101097139949
 10
216.1166705975155
 20
32.9101097139949
 10
218.7204582786535
 20
33.25710193613022
 10
220.7372479796348
 20
35.48672715021372
 10
220.7372479796348
 20
38.18392485918025
 10
220.7372479796348
 20
40.88112256814679
 10
218.7204582786535
 20
43.1107486223754
 10
216.1166705975155
 20
43.45774083574511
 10
216.1166705975155
 20
43.45774083574511
 10
216.1166705975155
 20
45.76804716569318
 10
216.1166705975155
 20
45.76804716569318
 10
218.5036708143958
 20
46.0861468798
 10
220.3931132661921
 20
47.98705460908158
 10
220.6916338141318
 20
50.38008732580801
 10
220.6916338141318
 20
50.38008732580801
 10
221.0319585276716
 20
50.38008732580801
 10
221.0319585276716
 20
50.38008732580801
 10
221.3358060199198
 20
49.37128401821138
 10
222.2723957182477
 20
48.6340843147967
 10
223.3789537455725
 20
48.6340843147967
 10
224.7307981555286
 20
48.6340843147967
 10
225.8304770163623
 20
49.73376317563044
 10
225.8304770163623
 20
51.08564286336334
 10
225.8304770163623
 20
52.43748727331936
 10
224.7307981555286
 20
53.5371661341531
 10
223.3789537455725
 20
53.5371661341531
 97
        0
 97
        0
 92
        1
 93
        1
 72
     4
 94
        3
 73
     0
 74
     1
 95
       17
 96
       13
 40
0.0
 40
0.0
 40
0.0
 40
0.0
 40
1.0
 40
1.0
 40
1.0
 40
2.0
 40
2.0
 40
2.0
 40
3.0
 40
3.0
 40
3.0
 40
4.0
 40
4.0
 40
4.0
 40
4.0
 10
223.3796240233332
 20
65.90058054095834
 10
224.4341826075403
 20
65.90058054095834
 10
225.2923554992324
 20
65.04241334062979
 10
225.2923554992324
 20
63.98785475642271
 10
225.2923554992324
 20
62.93329617221563
 10
224.4341826075403
 20
62.07513054003654
 10
223.3796240233332
 20
62.07513054003654
 10
222.325100716903
 20
62.07513054003654
 10
221.4669335165745
 20
62.93329617221563
 10
221.4669335165745
 20
63.98785475642271
 10
221.4669335165745
 20
65.04241334062979
 10
222.325100716903
 20
65.90058054095834
 10
223.3796240233332
 20
65.90058054095834
 97
        0
 97
        0
 92
        1
 93
        1
 72
     4
 94
        3
 73
     0
 74
     1
 95
       17
 96
       13
 40
0.0
 40
0.0
 40
0.0
 40
0.0
 40
1.0
 40
1.0
 40
1.0
 40
2.0
 40
2.0
 40
2.0
 40
3.0
 40
3.0
 40
3.0
 40
4.0
 40
4.0
 40
4.0
 40
4.0
 10
210.7905729556178
 20
64.06021109509597
 10
210.7905729556178
 20
66.6078646895807
 10
212.8634951249554
 20
68.68075158114138
 10
215.4111150599602
 20
68.68075158114138
 10
217.9587702727418
 20
68.68075158114138
 10
220.0316924420794
 20
66.6078646895807
 10
220.0316924420794
 20
64.06021109509597
 10
220.0316924420794
 20
61.51255426401733
 10
217.9587702727418
 20
59.43963209467976
 10
215.4111150599602
 20
59.43963209467976
 10
212.8634951249554
 20
59.43963209467976
 10
210.7905729556178
 20
61.51255426401733
 10
210.7905729556178
 20
64.06021109509597
 97
        0
 97
        0
 92
        1
 93
        1
 72
     4
 94
        3
 73
     0
 74
     1
 95
       17
 96
       13
 40
0.0
 40
0.0
 40
0.0
 40
0.0
 40
1.0
 40
1.0
 40
1.0
 40
2.0
 40
2.0
 40
2.0
 40
3.0
 40
3.0
 40
3.0
 40
4.0
 40
4.0
 40
4.0
 40
4.0
 10
220.0316571643025
 20
25.38624166031987
 10
220.0316571643025
 20
22.83862166095715
 10
217.9587702727418
 20
20.76569943925309
 10
215.4111150599602
 20
20.76569943925309
 10
212.8634598471785
 20
20.76569943925309
 10
210.7905376778409
 20
22.83862166095715
 10
210.7905376778409
 20
25.38624166031987
 10
210.7905376778409
 20
27.93389693746076
 10
212.8634598471785
 20
30.00681915916482
 10
215.4111150599602
 20
30.00681915916482
 10
217.9587702727418
 20
30.00681915916482
 10
220.0316571643025
 20
27.93389693746076
 10
220.0316571643025
 20
25.38624166031987
 97
        0
 97
        0
 92
        1
 93
        1
 72
     4
 94
        3
 73
     0
 74
     1
 95
       17
 96
       13
 40
0.0
 40
0.0
 40
0.0
 40
0.0
 40
1.0
 40
1.0
 40
1.0
 40
2.0
 40
2.0
 40
2.0
 40
3.0
 40
3.0
 40
3.0
 40
4.0
 40
4.0
 40
4.0
 40
4.0
 10
220.0316924420794
 20
38.18392485918025
 10
220.0316924420794
 20
35.63626964639857
 10
217.9587702727418
 20
33.56334832494244
 10
215.4111150599602
 20
33.56334832494244
 10
212.8634951249554
 20
33.56334832494244
 10
210.7905729556178
 20
35.63626964639857
 10
210.7905729556178
 20
38.18392485918025
 10
210.7905729556178
 20
40.73158007196193
 10
212.8634951249554
 20
42.80446696352263
 10
215.4111150599602
 20
42.80446696352263
 10
217.9587702727418
 20
42.80446696352263
 10
220.0316924420794
 20
40.73158007196193
 10
220.0316924420794
 20
38.18392485918025
 97
        0
 97
        0
 92
        1
 93
        1
 72
     4
 94
        3
 73
     0
 74
     1
 95
       17
 96
       13
 40
0.0
 40
0.0
 40
0.0
 40
0.0
 40
1.0
 40
1.0
 40
1.0
 40
2.0
 40
2.0
 40
2.0
 40
3.0
 40
3.0
 40
3.0
 40
4.0
 40
4.0
 40
4.0
 40
4.0
 10
215.4111150599602
 20
46.4213222106168
 10
212.8634951249554
 20
46.4213222106168
 10
210.7905729556178
 20
48.49424443232086
 10
210.7905729556178
 20
51.04186314225803
 10
210.7905729556178
 20
53.58951835503971
 10
212.8634951249554
 20
55.66244052437728
 10
215.4111150599602
 20
55.66244052437728
 10
217.9587702727418
 20
55.66244052437728
 10
220.0316924420794
 20
53.58951835503971
 10
220.0316924420794
 20
51.04186314225803
 10
220.0316924420794
 20
48.49424443232086
 10
217.9587702727418
 20
46.4213222106168
 10
215.4111150599602
 20
46.4213222106168
 97
        0
 97
        0
 92
        1
 93
        1
 72
     4
 94
        3
 73
     0
 74
     1
 95
       17
 96
       13
 40
0.0
 40
0.0
 40
0.0
 40
0.0
 40
1.0
 40
1.0
 40
1.0
 40
2.0
 40
2.0
 40
2.0
 40
3.0
 40
3.0
 40
3.0
 40
4.0
 40
4.0
 40
4.0
 40
4.0
 10
223.3789537455725
 20
49.1729170788277
 10
222.3243951613655
 20
49.1729170788277
 10
221.4662279610369
 20
50.03108427915626
 10
221.4662279610369
 20
51.08564286336334
 10
221.4662279610369
 20
52.14016616979354
 10
222.3243951613655
 20
52.99833337012209
 10
223.3789537455725
 20
52.99833337012209
 10
224.4334770520028
 20
52.99833337012209
 10
225.2916795301082
 20
52.14016616979354
 10
225.2916795301082
 20
51.08564286336334
 10
225.2916795301082
 20
50.03108427915626
 10
224.4334770520028
 20
49.1729170788277
 10
223.3789537455725
 20
49.1729170788277
 97
        0
 97
        0
 75
     2
 76
     1
 98
        0
  0
SPLINE
  5
5D
330
1F
100
AcDbEntity
  8
prints
370
     0
100
AcDbSpline
210
0.0
220
0.0
230
1.0
 70
    11
 71
     3
 72
   107
 73
   103
 74
     0
 42
0.0000000001
 43
0.0000000001
 12
1.0
 22
0.0
 32
0.0
 13
1.0
 23
0.0
 33
0.0
 40
0.0
 40
0.0
 40
0.0
 40
0.0
 40
1.0
 40
1.0
 40
1.0
 40
2.0
 40
2.0
 40
2.0
 40
3.0
 40
3.0
 40
3.0
 40
4.0
 40
4.0
 40
4.0
 40
5.0
 40
5.0
 40
5.0
 40
6.0
 40
6.0
 40
6.0
 40
7.0
 40
7.0
 40
7.0
 40
8.0
 40
8.0
 40
8.0
 40
9.0
 40
9.0
 40
9.0
 40
10.0
 40
10.0
 40
10.0
 40
11.0
 40
11.0
 40
11.0
 40
12.0
 40
12.0
 40
12.0
 40
13.0
 40
13.0
 40
13.0
 40
14.0
 40
14.0
 40
14.0
 40
15.0
 40
15.0
 40
15.0
 40
16.0
 40
16.0
 40
16.0
 40
17.0
 40
17.0
 40
17.0
 40
18.0
 40
18.0
 40
18.0
 40
19.0
 40
19.0
 40
19.0
 40
20.0
 40
20.0
 40
20.0
 40
21.0
 40
21.0
 40
21.0
 40
22.0
 40
22.0
 40
22.0
 40
23.0
 40
23.0
 40
23.0
 40
24.0
 40
24.0
 40
24.0
 40
25.0
 40
25.0
 40
25.0
 40
26.0
 40
26.0
 40
26.0
 40
27.0
 40
27.0
 40
27.0
 40
28.0
 40
28.0
 40
28.0
 40
29.0
 40
29.0
 40
29.0
 40
30.0
 40
30.0
 40
30.0
 40
31.0
 40
31.0
 40
31.0
 40
32.0
 40
32.0
 40
32.0
 40
33.0
 40
33.0
 40
33.0
 40
34.0
 40
34.0
 40
34.0
 40
34.0
 10
223.3663243014503
 20
35.74340825477636
 30
0.0
 10
224.4728527216594
 20
35.74340825477636
 30
0.0
 10
225.4094367493262
 20
36.48060795819104
 30
0.0
 10
225.7132842415744
 20
37.48937598801079
 30
0.0
 10
225.7132842415744
 20
37.48937598801079
 30
0.0
 10
226.0670145103277
 20
37.48937598801079
 30
0.0
 10
226.0670145103277
 20
37.48937598801079
 30
0.0
 10
226.4004304989552
 20
35.13779554677095
 30
0.0
 10
228.2709583429893
 20
33.27907999168013
 30
0.0
 10
230.6285721717305
 20
32.96489610287021
 30
0.0
 10
230.6285721717305
 20
32.96489610287021
 30
0.0
 10
230.6285721717305
 20
30.49418165904344
 30
0.0
 10
230.6285721717305
 20
30.49418165904344
 30
0.0
 10
228.2805538983001
 20
30.18130304801008
 30
0.0
 10
226.415876445872
 20
28.33627527069372
 30
0.0
 10
226.0713889546606
 20
25.99827582683399
 30
0.0
 10
226.0713889546606
 20
25.99827582683399
 30
0.0
 10
225.7125786860368
 20
25.99827582683399
 30
0.0
 10
225.7125786860368
 20
25.99827582683399
 30
0.0
 10
225.4087721658699
 20
27.00707915991504
 30
0.0
 10
224.4721767732377
 20
27.74424360417495
 30
0.0
 10
223.3656187459128
 20
27.74424360417495
 30
0.0
 10
222.0137743359568
 20
27.74424360417495
 30
0.0
 10
220.914095475123
 20
26.64456471556078
 30
0.0
 10
220.914095475123
 20
25.29272027145482
 30
0.0
 10
220.914095475123
 20
23.94087582734821
 30
0.0
 10
222.0137743359568
 20
22.84119693873404
 30
0.0
 10
223.3656187459128
 20
22.84119693873404
 30
0.0
 10
224.4721767732377
 20
22.84119693873404
 30
0.0
 10
225.4087721658699
 20
23.5783613829946
 30
0.0
 10
225.7125786860368
 20
24.58716471607565
 30
0.0
 10
225.7125786860368
 20
24.58716471607565
 30
0.0
 10
226.0492345107814
 20
24.58716471607565
 30
0.0
 10
226.0492345107814
 20
24.58716471607565
 30
0.0
 10
226.3637711694235
 20
21.94817527229068
 30
0.0
 10
228.6118122231823
 20
19.89426777280437
 30
0.0
 10
231.3341277092858
 20
19.89426777280437
 30
0.0
 10
234.2710731899137
 20
19.89426777280437
 30
0.0
 10
236.6602666075016
 20
22.28341999442924
 30
0.0
 10
236.6602666075016
 20
25.22036554925032
 30
0.0
 10
236.6602666075016
 20
27.91756332635374
 30
0.0
 10
234.6434360524501
 20
30.14718943690748
 30
0.0
 10
232.0396832468412
 20
30.49418165904344
 30
0.0
 10
232.0396832468412
 20
30.49418165904344
 30
0.0
 10
232.0396832468412
 20
32.96489610287021
 30
0.0
 10
232.0396832468412
 20
32.96489610287021
 30
0.0
 10
234.6434360524501
 20
33.31185304722737
 30
0.0
 10
236.6602666075016
 20
35.54151353770489
 30
0.0
 10
236.6602666075016
 20
38.23871124667142
 30
0.0
 10
236.6602666075016
 20
40.93587367786107
 30
0.0
 10
234.6434360524501
 20
43.16553610031986
 30
0.0
 10
232.0396832468412
 20
43.51252722323628
 30
0.0
 10
232.0396832468412
 20
43.51252722323628
 30
0.0
 10
232.0396832468412
 20
45.82283355318435
 30
0.0
 10
232.0396832468412
 20
45.82283355318435
 30
0.0
 10
234.6434360524501
 20
46.16982576655406
 30
0.0
 10
236.6602666075016
 20
48.39945182078267
 30
0.0
 10
236.6602666075016
 20
51.0966495297492
 30
0.0
 10
236.6602666075016
 20
53.79384723871573
 30
0.0
 10
234.6434360524501
 20
56.02347329294435
 30
0.0
 10
232.0396832468412
 20
56.37046550631405
 30
0.0
 10
232.0396832468412
 20
56.37046550631405
 30
0.0
 10
232.0396832468412
 20
58.62051739335489
 30
0.0
 10
232.0396832468412
 20
58.62051739335489
 30
0.0
 10
234.6435006804122
 20
58.96747432894773
 30
0.0
 10
236.6602666075016
 20
61.19713566095322
 30
0.0
 10
236.6602666075016
 20
63.89433336991975
 30
0.0
 10
236.6602666075016
 20
66.8312805388475
 30
0.0
 10
234.2711084676905
 20
69.22043101181745
 30
0.0
 10
231.3341629870627
 20
69.22043101181745
 30
0.0
 10
228.3972175064349
 20
69.22043101181745
 30
0.0
 10
226.0080300673881
 20
66.8312805388475
 30
0.0
 10
226.0080300673881
 20
63.89433336991975
 30
0.0
 10
226.0080300673881
 20
61.1971709387301
 30
0.0
 10
228.0248252937132
 20
58.96747432894773
 30
0.0
 10
230.6285721717305
 20
58.62051739335489
 30
0.0
 10
230.6285721717305
 20
58.62051739335489
 30
0.0
 10
230.6285721717305
 20
56.37046550631405
 30
0.0
 10
230.6285721717305
 20
56.37046550631405
 30
0.0
 10
228.0248252937132
 20
56.02347329294435
 30
0.0
 10
226.0079947896112
 20
53.79384723871573
 30
0.0
 10
226.0079947896112
 20
51.0966495297492
 30
0.0
 10
226.0079947896112
 20
48.39945182078267
 30
0.0
 10
228.0248252937132
 20
46.16982576655406
 30
0.0
 10
230.6285721717305
 20
45.82283355318435
 30
0.0
 10
230.6285721717305
 20
45.82283355318435
 30
0.0
 10
230.6285721717305
 20
43.51252722323628
 30
0.0
 10
230.6285721717305
 20
43.51252722323628
 30
0.0
 10
228.241607232627
 20
43.19442750912946
 30
0.0
 10
226.3521647808307
 20
41.29351977984788
 30
0.0
 10
226.0536089551142
 20
38.90048706312145
 30
0.0
 10
226.0536089551142
 20
38.90048706312145
 30
0.0
 10
225.7132842415744
 20
38.90048706312145
 30
0.0
 10
225.7132842415744
 20
38.90048706312145
 30
0.0
 10
225.4094367493262
 20
39.90929037071807
 30
0.0
 10
224.4728527216594
 20
40.64649007413276
 30
0.0
 10
223.3663243014503
 20
40.64649007413276
 30
0.0
 10
222.0144446137174
 20
40.64649007413276
 30
0.0
 10
220.9147657528837
 20
39.54681121329902
 30
0.0
 10
220.9147657528837
 20
38.19493152556612
 30
0.0
 10
220.9147657528837
 20
36.8430871156101
 30
0.0
 10
222.0144446137174
 20
35.74340825477636
 30
0.0
 10
223.3663243014503
 20
35.74340825477636
 30
0.0
  0
SPLINE
  5
5E
330
1F
100
AcDbEntity
  8
prints
370
     0
100
AcDbSpline
210
0.0
220
0.0
230
1.0
 70
    11
 71
     3
 72
    17
 73
    13
 74
     0
 42
0.0000000001
 43
0.0000000001
 12
1.0
 22
0.0
 32
0.0
 13
1.0
 23
0.0
 33
0.0
 40
0.0
 40
0.0
 40
0.0
 40
0.0
 40
1.0
 40
1.0
 40
1.0
 40
2.0
 40
2.0
 40
2.0
 40
3.0
 40
3.0
 40
3.0
 40
4.0
 40
4.0
 40
4.0
 40
4.0
 10
223.3656187459128
 20
23.37999443859925
 30
0.0
 10
222.3110954394826
 20
23.37999443859925
 30
0.0
 10
221.4528929613771
 20
24.23816166060696
 30
0.0
 10
221.4528929613771
 20
25.29272027145482
 30
0.0
 10
221.4528929613771
 20
26.34727888230204
 30
0.0
 10
222.3110954394826
 20
27.20544610430975
 30
0.0
 10
223.3656187459128
 20
27.20544610430975
 30
0.0
 10
224.4201773301198
 20
27.20544610430975
 30
0.0
 10
225.2783445304484
 20
26.34727888230204
 30
0.0
 10
225.2783445304484
 20
25.29272027145482
 30
0.0
 10
225.2783445304484
 20
24.23816166060696
 30
0.0
 10
224.4201773301198
 20
23.37999443859925
 30
0.0
 10
223.3656187459128
 20
23.37999443859925
 30
0.0
  0
SPLINE
  5
5F
330
1F
100
AcDbEntity
  8
prints
370
     0
100
AcDbSpline
210
0.0
220
0.0
230
1.0
 70
    11
 71
     3
 72
    17
 73
    13
 74
     0
 42
0.0000000001
 43
0.0000000001
 12
1.0
 22
0.0
 32
0.0
 13
1.0
 23
0.0
 33
0.0
 40
0.0
 40
0.0
 40
0.0
 40
0.0
 40
1.0
 40
1.0
 40
1.0
 40
2.0
 40
2.0
 40
2.0
 40
3.0
 40
3.0
 40
3.0
 40
4.0
 40
4.0
 40
4.0
 40
4.0
 10
235.9547110521224
 20
25.22036554925032
 30
0.0
 10
235.9547110521224
 20
22.67271027210943
 30
0.0
 10
233.8817888304184
 20
20.59982332818353
 30
0.0
 10
231.3341277092858
 20
20.59982332818353
 30
0.0
 10
228.7864724965042
 20
20.59982332818353
 30
0.0
 10
226.7135503271666
 20
22.67271027210943
 30
0.0
 10
226.7135503271666
 20
25.22036554925032
 30
0.0
 10
226.7135503271666
 20
27.7680208263912
 30
0.0
 10
228.7864724965042
 20
29.84094304809527
 30
0.0
 10
231.3341277092858
 20
29.84094304809527
 30
0.0
 10
233.8817888304184
 20
29.84094304809527
 30
0.0
 10
235.9547110521224
 20
27.7680208263912
 30
0.0
 10
235.9547110521224
 20
25.22036554925032
 30
0.0
  0
SPLINE
  5
60
330
1F
100
AcDbEntity
  8
prints
370
     0
100
AcDbSpline
210
0.0
220
0.0
230
1.0
 70
    11
 71
     3
 72
    17
 73
    13
 74
     0
 42
0.0000000001
 43
0.0000000001
 12
1.0
 22
0.0
 32
0.0
 13
1.0
 23
0.0
 33
0.0
 40
0.0
 40
0.0
 40
0.0
 40
0.0
 40
1.0
 40
1.0
 40
1.0
 40
2.0
 40
2.0
 40
2.0
 40
3.0
 40
3.0
 40
3.0
 40
4.0
 40
4.0
 40
4.0
 40
4.0
 10
226.7135856049435
 20
63.89433336991975
 30
0.0
 10
226.7135856049435
 20
66.44195330492455
 30
0.0
 10
228.786507774281
 20
68.51487547426213
 30
0.0
 10
231.3341629870627
 20
68.51487547426213
 30
0.0
 10
233.8817888304184
 20
68.51487547426213
 30
0.0
 10
235.9547110521224
 20
66.44195330492455
 30
0.0
 10
235.9547110521224
 20
63.89433336991975
 30
0.0
 10
235.9547110521224
 20
61.34667815713807
 30
0.0
 10
233.8817888304184
 20
59.2737559878005
 30
0.0
 10
231.3341629870627
 20
59.2737559878005
 30
0.0
 10
228.786507774281
 20
59.2737559878005
 30
0.0
 10
226.7135856049435
 20
61.34667815713807
 30
0.0
 10
226.7135856049435
 20
63.89433336991975
 30
0.0
  0
SPLINE
  5
61
330
1F
100
AcDbEntity
  8
prints
370
     0
100
AcDbSpline
210
0.0
220
0.0
230
1.0
 70
    11
 71
     3
 72
    17
 73
    13
 74
     0
 42
0.0000000001
 43
0.0000000001
 12
1.0
 22
0.0
 32
0.0
 13
1.0
 23
0.0
 33
0.0
 40
0.0
 40
0.0
 40
0.0
 40
0.0
 40
1.0
 40
1.0
 40
1.0
 40
2.0
 40
2.0
 40
2.0
 40
3.0
 40
3.0
 40
3.0
 40
4.0
 40
4.0
 40
4.0
 40
4.0
 10
226.7135503271666
 20
51.0966495297492
 30
0.0
 10
226.7135503271666
 20
53.64430474253088
 30
0.0
 10
228.7864724965042
 20
55.71722691186845
 30
0.0
 10
231.3341277092858
 20
55.71722691186845
 30
0.0
 10
233.8817888304184
 20
55.71722691186845
 30
0.0
 10
235.9547110521224
 20
53.64430474253088
 30
0.0
 10
235.9547110521224
 20
51.0966495297492
 30
0.0
 10
235.9547110521224
 20
48.54899431696752
 30
0.0
 10
233.8817888304184
 20
46.47610742540683
 30
0.0
 10
231.3341277092858
 20
46.47610742540683
 30
0.0
 10
228.7864724965042
 20
46.47610742540683
 30
0.0
 10
226.7135503271666
 20
48.54899431696752
 30
0.0
 10
226.7135503271666
 20
51.0966495297492
 30
0.0
  0
SPLINE
  5
62
330
1F
100
AcDbEntity
  8
prints
370
     0
100
AcDbSpline
210
0.0
220
0.0
230
1.0
 70
    11
 71
     3
 72
    17
 73
    13
 74
     0
 42
0.0000000001
 43
0.0000000001
 12
1.0
 22
0.0
 32
0.0
 13
1.0
 23
0.0
 33
0.0
 40
0.0
 40
0.0
 40
0.0
 40
0.0
 40
1.0
 40
1.0
 40
1.0
 40
2.0
 40
2.0
 40
2.0
 40
3.0
 40
3.0
 40
3.0
 40
4.0
 40
4.0
 40
4.0
 40
4.0
 10
231.3341277092858
 20
42.8592533510138
 30
0.0
 10
233.8817888304184
 20
42.8592533510138
 30
0.0
 10
235.9547110521224
 20
40.78633118167622
 30
0.0
 10
235.9547110521224
 20
38.23871124667142
 30
0.0
 10
235.9547110521224
 20
35.69105603388974
 30
0.0
 10
233.8817888304184
 20
33.61813471381775
 30
0.0
 10
231.3341277092858
 20
33.61813471381775
 30
0.0
 10
228.7864724965042
 20
33.61813471381775
 30
0.0
 10
226.7135503271666
 20
35.69105603388974
 30
0.0
 10
226.7135503271666
 20
38.23871124667142
 30
0.0
 10
226.7135503271666
 20
40.78633118167622
 30
0.0
 10
228.7864724965042
 20
42.8592533510138
 30
0.0
 10
231.3341277092858
 20
42.8592533510138
 30
0.0
  0
SPLINE
  5
63
330
1F
100
AcDbEntity
  8
prints
370
     0
100
AcDbSpline
210
0.0
220
0.0
230
1.0
 70
    11
 71
     3
 72
    17
 73
    13
 74
     0
 42
0.0000000001
 43
0.0000000001
 12
1.0
 22
0.0
 32
0.0
 13
1.0
 23
0.0
 33
0.0
 40
0.0
 40
0.0
 40
0.0
 40
0.0
 40
1.0
 40
1.0
 40
1.0
 40
2.0
 40
2.0
 40
2.0
 40
3.0
 40
3.0
 40
3.0
 40
4.0
 40
4.0
 40
4.0
 40
4.0
 10
223.3663243014503
 20
40.10765832330667
 30
0.0
 10
224.4208476078805
 20
40.10765832330667
 30
0.0
 10
225.2790148082091
 20
39.2494901097732
 30
0.0
 10
225.2790148082091
 20
38.19493152556612
 30
0.0
 10
225.2790148082091
 20
37.14040821913591
 30
0.0
 10
224.4208476078805
 20
36.28224101880736
 30
0.0
 10
223.3663243014503
 20
36.28224101880736
 30
0.0
 10
222.3117657172432
 20
36.28224101880736
 30
0.0
 10
221.4535985169147
 20
37.14040821913591
 30
0.0
 10
221.4535985169147
 20
38.19493152556612
 30
0.0
 10
221.4535985169147
 20
39.2494901097732
 30
0.0
 10
222.3117657172432
 20
40.10765832330667
 30
0.0
 10
223.3663243014503
 20
40.10765832330667
 30
0.0
  0
HATCH
  5
64
330
1F
100
AcDbEntity
  8
prints
 62
     7
420
 16777215
100
AcDbHatch
 10
0.0
 20
0.0
 30
0.0
210
0.0
220
0.0
230
1.0
  2
SOLID
 70
     1
 71
     0
 91
        7
 92
        1
 93
        1
 72
     4
 94
        3
 73
     0
 74
     1
 95
      107
 96
      103
 40
0.0
 40
0.0
 40
0.0
 40
0.0
 40
1.0
 40
1.0
 40
1.0
 40
2.0
 40
2.0
 40
2.0
 40
3.0
 40
3.0
 40
3.0
 40
4.0
 40
4.0
 40
4.0
 40
5.0
 40
5.0
 40
5.0
 40
6.0
 40
6.0
 40
6.0
 40
7.0
 40
7.0
 40
7.0
 40
8.0
 40
8.0
 40
8.0
 40
9.0
 40
9.0
 40
9.0
 40
10.0
 40
10.0
 40
10.0
 40
11.0
 40
11.0
 40
11.0
 40
12.0
 40
12.0
 40
12.0
 40
13.0
 40
13.0
 40
13.0
 40
14.0
 40
14.0
 40
14.0
 40
15.0
 40
15.0
 40
15.0
 40
16.0
 40
16.0
 40
16.0
 40
17.0
 40
17.0
 40
17.0
 40
18.0
 40
18.0
 40
18.0
 40
19.0
 40
19.0
 40
19.0
 40
20.0
 40
20.0
 40
20.0
 40
21.0
 40
21.0
 40
21.0
 40
22.0
 40
22.0
 40
22.0
 40
23.0
 40
23.0
 40
23.0
 40
24.0
 40
24.0
 40
24.0
 40
25.0
 40
25.0
 40
25.0
 40
26.0
 40
26.0
 40
26.0
 40
27.0
 40
27.0
 40
27.0
 40
28.0
 40
28.0
 40
28.0
 40
29.0
 40
29.0
 40
29.0
 40
30.0
 40
30.0
 40
30.0
 40
31.0
 40
31.0
 40
31.0
 40
32.0
 40
32.0
 40
32.0
 40
33.0
 40
33.0
 40
33.0
 40
34.0
 40
34.0
 40
34.0
 40
34.0
 10
223.3663243014503
 20
35.74340825477636
 10
224.4728527216594
 20
35.74340825477636
 10
225.4094367493262
 20
36.48060795819104
 10
225.7132842415744
 20
37.48937598801079
 10
225.7132842415744
 20
37.48937598801079
 10
226.0670145103277
 20
37.48937598801079
 10
226.0670145103277
 20
37.48937598801079
 10
226.4004304989552
 20
35.13779554677095
 10
228.2709583429893
 20
33.27907999168013
 10
230.6285721717305
 20
32.96489610287021
 10
230.6285721717305
 20
32.96489610287021
 10
230.6285721717305
 20
30.49418165904344
 10
230.6285721717305
 20
30.49418165904344
 10
228.2805538983001
 20
30.18130304801008
 10
226.415876445872
 20
28.33627527069372
 10
226.0713889546606
 20
25.99827582683399
 10
226.0713889546606
 20
25.99827582683399
 10
225.7125786860368
 20
25.99827582683399
 10
225.7125786860368
 20
25.99827582683399
 10
225.4087721658699
 20
27.00707915991504
 10
224.4721767732377
 20
27.74424360417495
 10
223.3656187459128
 20
27.74424360417495
 10
222.0137743359568
 20
27.74424360417495
 10
220.914095475123
 20
26.64456471556078
 10
220.914095475123
 20
25.29272027145482
 10
220.914095475123
 20
23.94087582734821
 10
222.0137743359568
 20
22.84119693873404
 10
223.3656187459128
 20
22.84119693873404
 10
224.4721767732377
 20
22.84119693873404
 10
225.4087721658699
 20
23.5783613829946
 10
225.7125786860368
 20
24.58716471607565
 10
225.7125786860368
 20
24.58716471607565
 10
226.0492345107814
 20
24.58716471607565
 10
226.0492345107814
 20
24.58716471607565
 10
226.3637711694235
 20
21.94817527229068
 10
228.6118122231823
 20
19.89426777280437
 10
231.3341277092858
 20
19.89426777280437
 10
234.2710731899137
 20
19.89426777280437
 10
236.6602666075016
 20
22.28341999442924
 10
236.6602666075016
 20
25.22036554925032
 10
236.6602666075016
 20
27.91756332635374
 10
234.6434360524501
 20
30.14718943690748
 10
232.0396832468412
 20
30.49418165904344
 10
232.0396832468412
 20
30.49418165904344
 10
232.0396832468412
 20
32.96489610287021
 10
232.0396832468412
 20
32.96489610287021
 10
234.6434360524501
 20
33.31185304722737
 10
236.6602666075016
 20
35.54151353770489
 10
236.6602666075016
 20
38.23871124667142
 10
236.6602666075016
 20
40.93587367786107
 10
234.6434360524501
 20
43.16553610031986
 10
232.0396832468412
 20
43.51252722323628
 10
232.0396832468412
 20
43.51252722323628
 10
232.0396832468412
 20
45.82283355318435
 10
232.0396832468412
 20
45.82283355318435
 10
234.6434360524501
 20
46.16982576655406
 10
236.6602666075016
 20
48.39945182078267
 10
236.6602666075016
 20
51.0966495297492
 10
236.6602666075016
 20
53.79384723871573
 10
234.6434360524501
 20
56.02347329294435
 10
232.0396832468412
 20
56.37046550631405
 10
232.0396832468412
 20
56.37046550631405
 10
232.0396832468412
 20
58.62051739335489
 10
232.0396832468412
 20
58.62051739335489
 10
234.6435006804122
 20
58.96747432894773
 10
236.6602666075016
 20
61.19713566095322
 10
236.6602666075016
 20
63.89433336991975
 10
236.6602666075016
 20
66.8312805388475
 10
234.2711084676905
 20
69.22043101181745
 10
231.3341629870627
 20
69.22043101181745
 10
228.3972175064349
 20
69.22043101181745
 10
226.0080300673881
 20
66.8312805388475
 10
226.0080300673881
 20
63.89433336991975
 10
226.0080300673881
 20
61.1971709387301
 10
228.0248252937132
 20
58.96747432894773
 10
230.6285721717305
 20
58.62051739335489
 10
230.6285721717305
 20
58.62051739335489
 10
230.6285721717305
 20
56.37046550631405
 10
230.6285721717305
 20
56.37046550631405
 10
228.0248252937132
 20
56.02347329294435
 10
226.0079947896112
 20
53.79384723871573
 10
226.0079947896112
 20
51.0966495297492
 10
226.0079947896112
 20
48.39945182078267
 10
228.0248252937132
 20
46.16982576655406
 10
230.6285721717305
 20
45.82283355318435
 10
230.6285721717305
 20
45.82283355318435
 10
230.6285721717305
 20
43.51252722323628
 10
230.6285721717305
 20
43.51252722323628
 10
228.241607232627
 20
43.19442750912946
 10
226.3521647808307
 20
41.29351977984788
 10
226.0536089551142
 20
38.90048706312145
 10
226.0536089551142
 20
38.90048706312145
 10
225.7132842415744
 20
38.90048706312145
 10
225.7132842415744
 20
38.90048706312145
 10
225.4094367493262
 20
39.90929037071807
 10
224.4728527216594
 20
40.64649007413276
 10
223.3663243014503
 20
40.64649007413276
 10
222.0144446137174
 20
40.64649007413276
 10
220.9147657528837
 20
39.54681121329902
 10
220.9147657528837
 20
38.19493152556612
 10
220.9147657528837
 20
36.8430871156101
 10
222.0144446137174
 20
35.74340825477636
 10
223.3663243014503
 20
35.74340825477636
 97
        0
 97
        0
 92
        1
 93
        1
 72
     4
 94
        3
 73
     0
 74
     1
 95
       17
 96
       13
 40
0.0
 40
0.0
 40
0.0
 40
0.0
 40
1.0
 40
1.0
 40
1.0
 40
2.0
 40
2.0
 40
2.0
 40
3.0
 40
3.0
 40
3.0
 40
4.0
 40
4.0
 40
4.0
 40
4.0
 10
223.3656187459128
 20
23.37999443859925
 10
222.3110954394826
 20
23.37999443859925
 10
221.4528929613771
 20
24.23816166060696
 10
221.4528929613771
 20
25.29272027145482
 10
221.4528929613771
 20
26.34727888230204
 10
222.3110954394826
 20
27.20544610430975
 10
223.3656187459128
 20
27.20544610430975
 10
224.4201773301198
 20
27.20544610430975
 10
225.2783445304484
 20
26.34727888230204
 10
225.2783445304484
 20
25.29272027145482
 10
225.2783445304484
 20
24.23816166060696
 10
224.4201773301198
 20
23.37999443859925
 10
223.3656187459128
 20
23.37999443859925
 97
        0
 97
        0
 92
        1
 93
        1
 72
     4
 94
        3
 73
     0
 74
     1
 95
       17
 96
       13
 40
0.0
 40
0.0
 40
0.0
 40
0.0
 40
1.0
 40
1.0
 40
1.0
 40
2.0
 40
2.0
 40
2.0
 40
3.0
 40
3.0
 40
3.0
 40
4.0
 40
4.0
 40
4.0
 40
4.0
 10
235.9547110521224
 20
25.22036554925032
 10
235.9547110521224
 20
22.67271027210943
 10
233.8817888304184
 20
20.59982332818353
 10
231.3341277092858
 20
20.59982332818353
 10
228.7864724965042
 20
20.59982332818353
 10
226.7135503271666
 20
22.67271027210943
 10
226.7135503271666
 20
25.22036554925032
 10
226.7135503271666
 20
27.7680208263912
 10
228.7864724965042
 20
29.84094304809527
 10
231.3341277092858
 20
29.84094304809527
 10
233.8817888304184
 20
29.84094304809527
 10
235.9547110521224
 20
27.7680208263912
 10
235.9547110521224
 20
25.22036554925032
 97
        0
 97
        0
 92
        1
 93
        1
 72
     4
 94
        3
 73
     0
 74
     1
 95
       17
 96
       13
 40
0.0
 40
0.0
 40
0.0
 40
0.0
 40
1.0
 40
1.0
 40
1.0
 40
2.0
 40
2.0
 40
2.0
 40
3.0
 40
3.0
 40
3.0
 40
4.0
 40
4.0
 40
4.0
 40
4.0
 10
226.7135856049435
 20
63.89433336991975
 10
226.7135856049435
 20
66.44195330492455
 10
228.786507774281
 20
68.51487547426213
 10
231.3341629870627
 20
68.51487547426213
 10
233.8817888304184
 20
68.51487547426213
 10
235.9547110521224
 20
66.44195330492455
 10
235.9547110521224
 20
63.89433336991975
 10
235.9547110521224
 20
61.34667815713807
 10
233.8817888304184
 20
59.2737559878005
 10
231.3341629870627
 20
59.2737559878005
 10
228.786507774281
 20
59.2737559878005
 10
226.7135856049435
 20
61.34667815713807
 10
226.7135856049435
 20
63.89433336991975
 97
        0
 97
        0
 92
        1
 93
        1
 72
     4
 94
        3
 73
     0
 74
     1
 95
       17
 96
       13
 40
0.0
 40
0.0
 40
0.0
 40
0.0
 40
1.0
 40
1.0
 40
1.0
 40
2.0
 40
2.0
 40
2.0
 40
3.0
 40
3.0
 40
3.0
 40
4.0
 40
4.0
 40
4.0
 40
4.0
 10
226.7135503271666
 20
51.0966495297492
 10
226.7135503271666
 20
53.64430474253088
 10
228.7864724965042
 20
55.71722691186845
 10
231.3341277092858
 20
55.71722691186845
 10
233.8817888304184
 20
55.71722691186845
 10
235.9547110521224
 20
53.64430474253088
 10
235.9547110521224
 20
51.0966495297492
 10
235.9547110521224
 20
48.54899431696752
 10
233.8817888304184
 20
46.47610742540683
 10
231.3341277092858
 20
46.47610742540683
 10
228.7864724965042
 20
46.47610742540683
 10
226.7135503271666
 20
48.54899431696752
 10
226.7135503271666
 20
51.0966495297492
 97
        0
 97
        0
 92
        1
 93
        1
 72
     4
 94
        3
 73
     0
 74
     1
 95
       17
 96
       13
 40
0.0
 40
0.0
 40
0.0
 40
0.0
 40
1.0
 40
1.0
 40
1.0
 40
2.0
 40
2.0
 40
2.0
 40
3.0
 40
3.0
 40
3.0
 40
4.0
 40
4.0
 40
4.0
 40
4.0
 10
231.3341277092858
 20
42.8592533510138
 10
233.8817888304184
 20
42.8592533510138
 10
235.9547110521224
 20
40.78633118167622
 10
235.9547110521224
 20
38.23871124667142
 10
235.9547110521224
 20
35.69105603388974
 10
233.8817888304184
 20
33.61813471381775
 10
231.3341277092858
 20
33.61813471381775
 10
228.7864724965042
 20
33.61813471381775
 10
226.7135503271666
 20
35.69105603388974
 10
226.7135503271666
 20
38.23871124667142
 10
226.7135503271666
 20
40.78633118167622
 10
228.7864724965042
 20
42.8592533510138
 10
231.3341277092858
 20
42.8592533510138
 97
        0
 97
        0
 92
        1
 93
        1
 72
     4
 94
        3
 73
     0
 74
     1
 95
       17
 96
       13
 40
0.0
 40
0.0
 40
0.0
 40
0.0
 40
1.0
 40
1.0
 40
1.0
 40
2.0
 40
2.0
 40
2.0
 40
3.0
 40
3.0
 40
3.0
 40
4.0
 40
4.0
 40
4.0
 40
4.0
 10
223.3663243014503
 20
40.10765832330667
 10
224.4208476078805
 20
40.10765832330667
 10
225.2790148082091
 20
39.2494901097732
 10
225.2790148082091
 20
38.19493152556612
 10
225.2790148082091
 20
37.14040821913591
 10
224.4208476078805
 20
36.28224101880736
 10
223.3663243014503
 20
36.28224101880736
 10
222.3117657172432
 20
36.28224101880736
 10
221.4535985169147
 20
37.14040821913591
 10
221.4535985169147
 20
38.19493152556612
 10
221.4535985169147
 20
39.2494901097732
 10
222.3117657172432
 20
40.10765832330667
 10
223.3663243014503
 20
40.10765832330667
 97
        0
 97
        0
 75
     2
 76
     1
 98
        0
  0
ENDSEC
  0
SECTION
  2
OBJECTS
  0
DICTIONARY
  5
C
330
0
100
AcDbDictionary
281
     1
  3
ACAD_GROUP
350
D
  3
ACAD_LAYOUT
350
1A
  3
ACAD_MATERIAL
350
3B
  3
ACAD_MLEADERSTYLE
350
66
  3
ACAD_MLINESTYLE
350
17
  3
ACAD_PLOTSETTINGS
350
19
  3
ACAD_PLOTSTYLENAME
350
E
  3
ACAD_TABLESTYLE
350
65
  3
ACAD_VISUALSTYLE
350
2A
  0
SUN
  5
3F
330
29
100
AcDbSun
 90
        1
290
     0
 63
     7
421
 16777215
 40
1.0
291
     1
 91
  2455826
 92
 54000000
292
     0
 70
     2
 71
   256
280
     1
  0
DICTIONARY
  5
D
102
{ACAD_REACTORS
330
C
102
}
330
C
100
AcDbDictionary
281
     1
  0
DICTIONARY
  5
1A
102
{ACAD_REACTORS
330
C
102
}
330
C
100
AcDbDictionary
281
     1
  3
Layout1
350
1E
  3
Layout2
350
26
  3
Model
350
22
  0
DICTIONARY
  5
3B
102
{ACAD_REACTORS
330
C
102
}
330
C
100
AcDbDictionary
281
     1
  3
ByBlock
350
3D
  3
ByLayer
350
3C
  3
Global
350
3E
  0
DICTIONARY
  5
66
102
{ACAD_REACTORS
330
C
102
}
330
C
100
AcDbDictionary
281
     1
  0
DICTIONARY
  5
17
102
{ACAD_REACTORS
330
C
102
}
330
C
100
AcDbDictionary
281
     1
  3
Standard
350
18
  0
DICTIONARY
  5
19
102
{ACAD_REACTORS
330
C
102
}
330
C
100
AcDbDictionary
281
     1
  0
ACDBDICTIONARYWDFLT
  5
E
102
{ACAD_REACTORS
330
C
102
}
330
C
100
AcDbDictionary
281
     1
  3
Normal
350
F
100
AcDbDictionaryWithDefault
340
F
  0
DICTIONARY
  5
65
102
{ACAD_REACTORS
330
C
102
}
330
C
100
AcDbDictionary
281
     1
  0
DICTIONARY
  5
2A
102
{ACAD_REACTORS
330
C
102
}
330
C
100
AcDbDictionary
281
     1
  3
2dWireframe
350
2F
  3
3D Hidden
350
31
  3
3dWireframe
350
30
  3
Basic
350
32
  3
Brighten
350
36
  3
ColorChange
350
3A
  3
Conceptual
350
34
  3
Dim
350
35
  3
Facepattern
350
39
  3
Flat
350
2B
  3
FlatWithEdges
350
2C
  3
Gouraud
350
2D
  3
GouraudWithEdges
350
2E
  3
Linepattern
350
38
  3
Realistic
350
33
  3
Thicken
350
37
  0
LAYOUT
  5
1E
102
{ACAD_REACTORS
330
1A
102
}
330
1A
100
AcDbPlotSettings
  1

  2
none_device
  4

  6

 40
0.0
 41
0.0
 42
0.0
 43
0.0
 44
0.0
 45
0.0
 46
0.0
 47
0.0
 48
0.0
 49
0.0
140
0.0
141
0.0
142
1.0
143
1.0
 70
   688
 72
     0
 73
     0
 74
     5
  7

 75
    16
 76
     0
 77
     2
 78
   300
147
1.0
148
0.0
149
0.0
100
AcDbLayout
  1
Layout1
 70
     1
 71
     1
 10
0.0
 20
0.0
 11
12.0
 21
9.0
 12
0.0
 22
0.0
 32
0.0
 14
1.000000000000000E+20
 24
1.000000000000000E+20
 34
1.000000000000000E+20
 15
-1.000000000000000E+20
 25
-1.000000000000000E+20
 35
-1.000000000000000E+20
146
0.0
 13
0.0
 23
0.0
 33
0.0
 16
1.0
 26
0.0
 36
0.0
 17
0.0
 27
1.0
 37
0.0
 76
     0
330
1B
  0
LAYOUT
  5
26
102
{ACAD_REACTORS
330
1A
102
}
330
1A
100
AcDbPlotSettings
  1

  2
none_device
  4

  6

 40
0.0
 41
0.0
 42
0.0
 43
0.0
 44
0.0
 45
0.0
 46
0.0
 47
0.0
 48
0.0
 49
0.0
140
0.0
141
0.0
142
1.0
143
1.0
 70
   688
 72
     0
 73
     0
 74
     5
  7

 75
    16
 76
     0
 77
     2
 78
   300
147
1.0
148
0.0
149
0.0
100
AcDbLayout
  1
Layout2
 70
     1
 71
     2
 10
0.0
 20
0.0
 11
0.0
 21
0.0
 12
0.0
 22
0.0
 32
0.0
 14
0.0
 24
0.0
 34
0.0
 15
0.0
 25
0.0
 35
0.0
146
0.0
 13
0.0
 23
0.0
 33
0.0
 16
1.0
 26
0.0
 36
0.0
 17
0.0
 27
1.0
 37
0.0
 76
     0
330
23
  0
LAYOUT
  5
22
102
{ACAD_REACTORS
330
1A
102
}
330
1A
100
AcDbPlotSettings
  1

  2
none_device
  4

  6

 40
0.0
 41
0.0
 42
0.0
 43
0.0
 44
0.0
 45
0.0
 46
0.0
 47
0.0
 48
0.0
 49
0.0
140
0.0
141
0.0
142
1.0
143
1.0
 70
  1712
 72
     0
 73
     0
 74
     0
  7

 75
     0
 76
     0
 77
     2
 78
   300
147
1.0
148
0.0
149
0.0
100
AcDbLayout
  1
Model
 70
     1
 71
     0
 10
0.0
 20
0.0
 11
12.0
 21
9.0
 12
0.0
 22
0.0
 32
0.0
 14
1.000000000000000E+20
 24
1.000000000000000E+20
 34
1.000000000000000E+20
 15
-1.000000000000000E+20
 25
-1.000000000000000E+20
 35
-1.000000000000000E+20
146
0.0
 13
0.0
 23
0.0
 33
0.0
 16
1.0
 26
0.0
 36
0.0
 17
0.0
 27
1.0
 37
0.0
 76
     0
330
1F
331
29
  0
MATERIAL
  5
3D
102
{ACAD_REACTORS
330
3B
102
}
330
3B
100
AcDbMaterial
  1
ByBlock
 72
     1
 94
      127
  0
MATERIAL
  5
3C
102
{ACAD_REACTORS
330
3B
102
}
330
3B
100
AcDbMaterial
  1
ByLayer
 72
     1
 94
      127
  0
MATERIAL
  5
3E
102
{ACAD_REACTORS
330
3B
102
}
330
3B
100
AcDbMaterial
  1
Global
 72
     1
 94
      127
  0
MLINESTYLE
  5
18
102
{ACAD_REACTORS
330
17
102
}
330
17
100
AcDbMlineStyle
  2
Standard
 70
     0
  3

 62
   256
 51
90.0
 52
90.0
 71
     2
 49
0.5
 62
   256
  6
BYLAYER
 49
-0.5
 62
   256
  6
BYLAYER
  0
ACDBPLACEHOLDER
  5
F
102
{ACAD_REACTORS
330
E
102
}
330
E
  0
VISUALSTYLE
  5
2F
102
{ACAD_REACTORS
330
2A
102
}
330
2A
100
AcDbVisualStyle
  2
2dWireframe
 70
     4
177
     2
291
     0
 71
     0
176
     1
 72
     2
176
     1
 73
     0
176
     1
 90
        0
176
     1
 40
-0.6
176
     1
 41
-30.0
176
     1
 62
     5
 63
     7
421
 16777215
176
     1
 74
     1
176
     1
 91
        4
176
     1
 64
     7
176
     1
 65
   257
176
     1
 75
     1
176
     1
175
     1
176
     1
 42
1.0
176
     1
 92
        0
176
     1
 66
   257
176
     1
 43
1.0
176
     1
 76
     1
176
     1
 77
     6
176
     1
 78
     2
176
     1
 67
     7
176
     1
 79
     5
176
     1
170
     0
176
     1
171
     0
176
     1
290
     0
176
     1
 93
        1
176
     1
 44
0.0
176
     1
173
     0
176
     1
  0
VISUALSTYLE
  5
31
102
{ACAD_REACTORS
330
2A
102
}
330
2A
100
AcDbVisualStyle
  2
3D Hidden
 70
     6
177
     2
291
     0
 71
     1
176
     1
 72
     2
176
     1
 73
     2
176
     1
 90
        0
176
     1
 40
-0.6
176
     1
 41
-30.0
176
     1
 62
     5
 63
     7
421
 16777215
176
     1
 74
     2
176
     1
 91
        2
176
     1
 64
     7
176
     1
 65
   257
176
     1
 75
     2
176
     1
175
     1
176
     1
 42
40.0
176
     1
 92
        0
176
     1
 66
   257
176
     1
 43
1.0
176
     1
 76
     1
176
     1
 77
     6
176
     1
 78
     2
176
     1
 67
     7
176
     1
 79
     3
176
     1
170
     0
176
     1
171
     0
176
     1
290
     0
176
     1
 93
        1
176
     1
 44
0.0
176
     1
173
     0
176
     1
  0
VISUALSTYLE
  5
30
102
{ACAD_REACTORS
330
2A
102
}
330
2A
100
AcDbVisualStyle
  2
3dWireframe
 70
     5
177
     2
291
     0
 71
     0
176
     1
 72
     2
176
     1
 73
     0
176
     1
 90
        0
176
     1
 40
-0.6
176
     1
 41
-30.0
176
     1
 62
     5
 63
     7
421
 16777215
176
     1
 74
     1
176
     1
 91
        4
176
     1
 64
     7
176
     1
 65
   257
176
     1
 75
     1
176
     1
175
     1
176
     1
 42
1.0
176
     1
 92
        0
176
     1
 66
   257
176
     1
 43
1.0
176
     1
 76
     1
176
     1
 77
     6
176
     1
 78
     2
176
     1
 67
     7
176
     1
 79
     5
176
     1
170
     0
176
     1
171
     0
176
     1
290
     0
176
     1
 93
        1
176
     1
 44
0.0
176
     1
173
     0
176
     1
  0
VISUALSTYLE
  5
32
102
{ACAD_REACTORS
330
2A
102
}
330
2A
100
AcDbVisualStyle
  2
Basic
 70
     7
177
     2
291
     1
 71
     1
176
     1
 72
     0
176
     1
 73
     1
176
     1
 90
        0
176
     1
 40
-0.6
176
     1
 41
-30.0
176
     1
 62
     5
 63
     7
421
 16777215
176
     1
 74
     0
176
     1
 91
        4
176
     1
 64
     7
176
     1
 65
   257
176
     1
 75
     1
176
     1
175
     1
176
     1
 42
1.0
176
     1
 92
        8
176
     1
 66
     7
176
     1
 43
1.0
176
     1
 76
     1
176
     1
 77
     6
176
     1
 78
     2
176
     1
 67
     7
176
     1
 79
     5
176
     1
170
     0
176
     1
171
     0
176
     1
290
     0
176
     1
 93
        1
176
     1
 44
0.0
176
     1
173
     0
176
     1
  0
VISUALSTYLE
  5
36
102
{ACAD_REACTORS
330
2A
102
}
330
2A
100
AcDbVisualStyle
  2
Brighten
 70
    12
177
     2
291
     1
 71
     2
176
     1
 72
     2
176
     1
 73
     0
176
     1
 90
        0
176
     1
 40
-0.6
176
     1
 41
-30.0
176
     1
 62
     5
 63
     7
421
 16777215
176
     1
 74
     1
176
     1
 91
        4
176
     1
 64
     7
176
     1
 65
   257
176
     1
 75
     1
176
     1
175
     1
176
     1
 42
1.0
176
     1
 92
        8
176
     1
 66
     7
176
     1
 43
1.0
176
     1
 76
     1
176
     1
 77
     6
176
     1
 78
     2
176
     1
 67
     7
176
     1
 79
     5
176
     1
170
     0
176
     1
171
     0
176
     1
290
     0
176
     1
 93
        1
176
     1
 44
50.0
176
     1
173
     0
176
     1
  0
VISUALSTYLE
  5
3A
102
{ACAD_REACTORS
330
2A
102
}
330
2A
100
AcDbVisualStyle
  2
ColorChange
 70
    16
177
     2
291
     1
 71
     2
176
     1
 72
     2
176
     1
 73
     3
176
     1
 90
        0
176
     1
 40
-0.6
176
     1
 41
-30.0
176
     1
 62
     5
 63
     8
421
  8421504
176
     1
 74
     1
176
     1
 91
        4
176
     1
 64
     7
176
     1
 65
   257
176
     1
 75
     1
176
     1
175
     1
176
     1
 42
1.0
176
     1
 92
        8
176
     1
 66
     8
424
  8421504
176
     1
 43
1.0
176
     1
 76
     1
176
     1
 77
     6
176
     1
 78
     2
176
     1
 67
     7
176
     1
 79
     5
176
     1
170
     0
176
     1
171
     0
176
     1
290
     0
176
     1
 93
        1
176
     1
 44
0.0
176
     1
173
     0
176
     1
  0
VISUALSTYLE
  5
34
102
{ACAD_REACTORS
330
2A
102
}
330
2A
100
AcDbVisualStyle
  2
Conceptual
 70
     9
177
     2
291
     0
 71
     3
176
     1
 72
     2
176
     1
 73
     0
176
     1
 90
        0
176
     1
 40
-0.6
176
     1
 41
-30.0
176
     1
 62
     5
 63
     7
421
 16777215
176
     1
 74
     2
176
     1
 91
        2
176
     1
 64
     7
176
     1
 65
   257
176
     1
 75
     1
176
     1
175
     1
176
     1
 42
40.0
176
     1
 92
        8
176
     1
 66
     7
176
     1
 43
1.0
176
     1
 76
     1
176
     1
 77
     6
176
     1
 78
     2
176
     1
 67
     7
176
     1
 79
     3
176
     1
170
     0
176
     1
171
     0
176
     1
290
     0
176
     1
 93
        1
176
     1
 44
0.0
176
     1
173
     0
176
     1
  0
VISUALSTYLE
  5
35
102
{ACAD_REACTORS
330
2A
102
}
330
2A
100
AcDbVisualStyle
  2
Dim
 70
    11
177
     2
291
     1
 71
     2
176
     1
 72
     2
176
     1
 73
     0
176
     1
 90
        0
176
     1
 40
-0.6
176
     1
 41
-30.0
176
     1
 62
     5
 63
     7
421
 16777215
176
     1
 74
     1
176
     1
 91
        4
176
     1
 64
     7
176
     1
 65
   257
176
     1
 75
     1
176
     1
175
     1
176
     1
 42
1.0
176
     1
 92
        8
176
     1
 66
     7
176
     1
 43
1.0
176
     1
 76
     1
176
     1
 77
     6
176
     1
 78
     2
176
     1
 67
     7
176
     1
 79
     5
176
     1
170
     0
176
     1
171
     0
176
     1
290
     0
176
     1
 93
        1
176
     1
 44
-50.0
176
     1
173
     0
176
     1
  0
VISUALSTYLE
  5
39
102
{ACAD_REACTORS
330
2A
102
}
330
2A
100
AcDbVisualStyle
  2
Facepattern
 70
    15
177
     2
291
     1
 71
     2
176
     1
 72
     2
176
     1
 73
     0
176
     1
 90
        0
176
     1
 40
-0.6
176
     1
 41
-30.0
176
     1
 62
     5
 63
     7
421
 16777215
176
     1
 74
     1
176
     1
 91
        4
176
     1
 64
     7
176
     1
 65
   257
176
     1
 75
     1
176
     1
175
     1
176
     1
 42
1.0
176
     1
 92
        8
176
     1
 66
     7
176
     1
 43
1.0
176
     1
 76
     1
176
     1
 77
     6
176
     1
 78
     2
176
     1
 67
     7
176
     1
 79
     5
176
     1
170
     0
176
     1
171
     0
176
     1
290
     0
176
     1
 93
        1
176
     1
 44
0.0
176
     1
173
     0
176
     1
  0
VISUALSTYLE
  5
2B
102
{ACAD_REACTORS
330
2A
102
}
330
2A
100
AcDbVisualStyle
  2
Flat
 70
     0
177
     2
291
     1
 71
     2
176
     1
 72
     1
176
     1
 73
     1
176
     1
 90
        2
176
     1
 40
-0.6
176
     1
 41
30.0
176
     1
 62
     5
 63
     7
421
 16777215
176
     1
 74
     0
176
     1
 91
        4
176
     1
 64
     7
176
     1
 65
   257
176
     1
 75
     1
176
     1
175
     1
176
     1
 42
1.0
176
     1
 92
        8
176
     1
 66
     7
176
     1
 43
1.0
176
     1
 76
     1
176
     1
 77
     6
176
     1
 78
     2
176
     1
 67
     7
176
     1
 79
     5
176
     1
170
     0
176
     1
171
     0
176
     1
290
     0
176
     1
 93
       13
176
     1
 44
0.0
176
     1
173
     0
176
     1
  0
VISUALSTYLE
  5
2C
102
{ACAD_REACTORS
330
2A
102
}
330
2A
100
AcDbVisualStyle
  2
FlatWithEdges
 70
     1
177
     2
291
     1
 71
     2
176
     1
 72
     1
176
     1
 73
     1
176
     1
 90
        2
176
     1
 40
-0.6
176
     1
 41
30.0
176
     1
 62
     5
 63
     7
421
 16777215
176
     1
 74
     1
176
     1
 91
        4
176
     1
 64
     7
176
     1
 65
   257
176
     1
 75
     1
176
     1
175
     1
176
     1
 42
1.0
176
     1
 92
        0
176
     1
 66
   257
176
     1
 43
1.0
176
     1
 76
     1
176
     1
 77
     6
176
     1
 78
     2
176
     1
 67
     7
176
     1
 79
     5
176
     1
170
     0
176
     1
171
     0
176
     1
290
     0
176
     1
 93
       13
176
     1
 44
0.0
176
     1
173
     0
176
     1
  0
VISUALSTYLE
  5
2D
102
{ACAD_REACTORS
330
2A
102
}
330
2A
100
AcDbVisualStyle
  2
Gouraud
 70
     2
177
     2
291
     1
 71
     2
176
     1
 72
     2
176
     1
 73
     1
176
     1
 90
        2
176
     1
 40
-0.6
176
     1
 41
30.0
176
     1
 62
     5
 63
     7
421
 16777215
176
     1
 74
     0
176
     1
 91
        4
176
     1
 64
     7
176
     1
 65
   257
176
     1
 75
     1
176
     1
175
     1
176
     1
 42
1.0
176
     1
 92
        0
176
     1
 66
     7
176
     1
 43
1.0
176
     1
 76
     1
176
     1
 77
     6
176
     1
 78
     2
176
     1
 67
     7
176
     1
 79
     5
176
     1
170
     0
176
     1
171
     0
176
     1
290
     0
176
     1
 93
       13
176
     1
 44
0.0
176
     1
173
     0
176
     1
  0
VISUALSTYLE
  5
2E
102
{ACAD_REACTORS
330
2A
102
}
330
2A
100
AcDbVisualStyle
  2
GouraudWithEdges
 70
     3
177
     2
291
     1
 71
     2
176
     1
 72
     2
176
     1
 73
     1
176
     1
 90
        2
176
     1
 40
-0.6
176
     1
 41
30.0
176
     1
 62
     5
 63
     7
421
 16777215
176
     1
 74
     1
176
     1
 91
        4
176
     1
 64
     7
176
     1
 65
   257
176
     1
 75
     1
176
     1
175
     1
176
     1
 42
1.0
176
     1
 92
        0
176
     1
 66
   257
176
     1
 43
1.0
176
     1
 76
     1
176
     1
 77
     6
176
     1
 78
     2
176
     1
 67
     7
176
     1
 79
     5
176
     1
170
     0
176
     1
171
     0
176
     1
290
     0
176
     1
 93
       13
176
     1
 44
0.0
176
     1
173
     0
176
     1
  0
VISUALSTYLE
  5
38
102
{ACAD_REACTORS
330
2A
102
}
330
2A
100
AcDbVisualStyle
  2
Linepattern
 70
    14
177
     2
291
     1
 71
     2
176
     1
 72
     2
176
     1
 73
     0
176
     1
 90
        0
176
     1
 40
-0.6
176
     1
 41
-30.0
176
     1
 62
     5
 63
     7
421
 16777215
176
     1
 74
     1
176
     1
 91
        4
176
     1
 64
     7
176
     1
 65
   257
176
     1
 75
     7
176
     1
175
     7
176
     1
 42
1.0
176
     1
 92
        8
176
     1
 66
     7
176
     1
 43
1.0
176
     1
 76
     1
176
     1
 77
     6
176
     1
 78
     2
176
     1
 67
     7
176
     1
 79
     5
176
     1
170
     0
176
     1
171
     0
176
     1
290
     0
176
     1
 93
        1
176
     1
 44
0.0
176
     1
173
     0
176
     1
  0
VISUALSTYLE
  5
33
102
{ACAD_REACTORS
330
2A
102
}
330
2A
100
AcDbVisualStyle
  2
Realistic
 70
     8
177
     2
291
     0
 71
     2
176
     1
 72
     2
176
     1
 73
     0
176
     1
 90
        0
176
     1
 40
-0.6
176
     1
 41
-30.0
176
     1
 62
     5
 63
     7
421
 16777215
176
     1
 74
     1
176
     1
 91
        0
176
     1
 64
     7
176
     1
 65
   257
176
     1
 75
     1
176
     1
175
     1
176
     1
 42
1.0
176
     1
 92
        8
176
     1
 66
     8
424
  7895160
176
     1
 43
1.0
176
     1
 76
     1
176
     1
 77
     6
176
     1
 78
     2
176
     1
 67
     7
176
     1
 79
     5
176
     1
170
     0
176
     1
171
     0
176
     1
290
     0
176
     1
 93
       13
176
     1
 44
0.0
176
     1
173
     0
176
     1
  0
VISUALSTYLE
  5
37
102
{ACAD_REACTORS
330
2A
102
}
330
2A
100
AcDbVisualStyle
  2
Thicken
 70
    13
177
     2
291
     1
 71
     2
176
     1
 72
     2
176
     1
 73
     0
176
     1
 90
        0
176
     1
 40
-0.6
176
     1
 41
-30.0
176
     1
 62
     5
 63
     7
421
 16777215
176
     1
 74
     1
176
     1
 91
        4
176
     1
 64
     7
176
     1
 65
   257
176
     1
 75
     1
176
     1
175
     1
176
     1
 42
1.0
176
     1
 92
       12
176
     1
 66
     7
176
     1
 43
1.0
176
     1
 76
     1
176
     1
 77
     6
176
     1
 78
     2
176
     1
 67
     7
176
     1
 79
     5
176
     1
170
     0
176
     1
171
     0
176
     1
290
     0
176
     1
 93
        1
176
     1
 44
0.0
176
     1
173
     0
176
     1
  0
ENDSEC
  0
EOF
